<svg width="18.0" height="18.0" viewBox="36.0 794.3622 18.0 18.0"><g id="bench-18" inkscape:label="bench-18">
      <g id="g9165" style="fill:none;stroke:#ffffff;stroke-opacity:1;opacity:0.29999999999999999;stroke-width:2;stroke-miterlimit:4;stroke-dasharray:none;stroke-linejoin:round" transform="translate(0,-2)">
        <path d="M 40 -230 L 40 -229 L 37 -229 L 37 -225 L 40 -225 L 40 -223.96875 L 37 -223.96875 L 37 -222 L 40 -222 L 40 -220 L 41 -220 L 41 -222 L 49 -222 L 49 -220 L 50 -220 L 50 -222 L 53 -222 L 53 -223.96875 L 50 -223.96875 L 50 -225 L 53 -225 L 53 -229 L 50 -229 L 50 -230 L 49 -230 L 49 -229 L 41 -229 L 41 -230 L 40 -230 z M 41 -225 L 49 -225 L 49 -223.96875 L 41 -223.96875 L 41 -225 z " id="path9167" style="font-size:medium;font-style:normal;font-variant:normal;font-weight:normal;font-stretch:normal;text-indent:0;text-align:start;text-decoration:none;line-height:normal;letter-spacing:normal;word-spacing:normal;text-transform:none;direction:ltr;block-progression:tb;writing-mode:lr-tb;text-anchor:start;baseline-shift:baseline;color:#000000;fill:none;fill-opacity:1;stroke:#ffffff;stroke-width:2;marker:none;visibility:visible;display:inline;overflow:visible;enable-background:accumulate;font-family:Sans;-inkscape-font-specification:Sans;stroke-opacity:1;stroke-miterlimit:4;stroke-dasharray:none;stroke-linejoin:round" transform="translate(0,1030.3622)"/>
      </g>
      <g id="g9145" style="fill:#4d4d4d" transform="translate(0,-2)">
        <path d="M 40 -230 L 40 -229 L 37 -229 L 37 -225 L 40 -225 L 40 -223.96875 L 37 -223.96875 L 37 -222 L 40 -222 L 40 -220 L 41 -220 L 41 -222 L 49 -222 L 49 -220 L 50 -220 L 50 -222 L 53 -222 L 53 -223.96875 L 50 -223.96875 L 50 -225 L 53 -225 L 53 -229 L 50 -229 L 50 -230 L 49 -230 L 49 -229 L 41 -229 L 41 -230 L 40 -230 z M 41 -225 L 49 -225 L 49 -223.96875 L 41 -223.96875 L 41 -225 z " id="path5375" style="font-size:medium;font-style:normal;font-variant:normal;font-weight:normal;font-stretch:normal;text-indent:0;text-align:start;text-decoration:none;line-height:normal;letter-spacing:normal;word-spacing:normal;text-transform:none;direction:ltr;block-progression:tb;writing-mode:lr-tb;text-anchor:start;baseline-shift:baseline;color:#000000;fill:#747474;fill-opacity:1;stroke:none;stroke-width:0.95787632000000000;marker:none;visibility:visible;display:inline;overflow:visible;enable-background:accumulate;font-family:Sans;-inkscape-font-specification:Sans" transform="translate(0,1030.3622)"/>
      </g>
      <rect height="18" id="rect9169" ry="0.029564835" style="opacity:0.29999999999999999;fill:none;stroke:none;stroke-width:2;stroke-linecap:butt;stroke-linejoin:round;stroke-miterlimit:4;stroke-opacity:1;stroke-dasharray:none" transform="translate(0,1028.3622)" width="18" x="36" y="-234"/>
    </g></svg>