<svg width="12.0" height="12.0" viewBox="150.0 836.36218 12.0 12.0"><g id="border_control-12" inkscape:label="border_control-12">
      <path d="m 153,837.3622 0,4 -2,0 0,2 2,0 0,1 -1,0 2,3 2,-3 -1,0 0,-1 2,0 0,4 2,0 0,-4 2,0 0,-2 -2,0 0,-1 1,0 -2,-3 -2,3 1,0 0,1 -2,0 0,-4 z" id="path4618" inkscape:connector-curvature="0" sodipodi:nodetypes="ccccccccccccccccccccccccccc" style="fill:none;fill-opacity:1;stroke:#ffffff;stroke-opacity:1;opacity:0.29999999999999999;stroke-width:2;stroke-miterlimit:4;stroke-dasharray:none;stroke-linejoin:round"/>
      <path d="m 153,837.3622 0,4 -2,0 0,2 2,0 0,1 -1,0 2,3 2,-3 -1,0 0,-1 2,0 0,4 2,0 0,-4 2,0 0,-2 -2,0 0,-1 1,0 -2,-3 -2,3 1,0 0,1 -2,0 0,-4 z" id="path4279" inkscape:connector-curvature="0" sodipodi:nodetypes="ccccccccccccccccccccccccccc" style="fill:#525252;fill-opacity:1;stroke:none"/>
      <rect height="12" id="rect4284" style="opacity:0.3;fill:none;stroke:none" width="12" x="150" y="836.36218"/>
    </g></svg>