<svg width="18.0" height="18.0" viewBox="132.0 830.3622 18.0 18.0"><g id="border_control-18" inkscape:label="border_control-18">
      <rect height="18" id="rect3440" style="opacity:0.50000000000000000;fill:none;fill-opacity:1;fill-rule:nonzero;stroke:none;stroke-width:2;stroke-linecap:butt;stroke-linejoin:round;stroke-miterlimit:4;stroke-opacity:1;stroke-dasharray:none" transform="translate(0,1028.3622)" width="18" x="132" y="-198"/>
      <path d="M 136 -197 L 136 -190 L 133 -190 L 133 -188 L 136 -188 L 136 -185 L 134 -185 L 137 -181 L 140 -185 L 138 -185 L 138 -188 L 144 -188 L 144 -181 L 146 -181 L 146 -188 L 149 -188 L 149 -190 L 146 -190 L 146 -193 L 148 -193 L 145 -197 L 142 -193 L 144 -193 L 144 -190 L 138 -190 L 138 -197 L 136 -197 z " id="path4266" style="fill:none;fill-opacity:1;stroke:#ffffff;stroke-opacity:1;opacity:0.29999999999999999;stroke-width:2;stroke-miterlimit:4;stroke-dasharray:none;stroke-linejoin:round" transform="translate(0,1028.3622)"/>
      <path d="M 136 -197 L 136 -190 L 133 -190 L 133 -188 L 136 -188 L 136 -185 L 134 -185 L 137 -181 L 140 -185 L 138 -185 L 138 -188 L 144 -188 L 144 -181 L 146 -181 L 146 -188 L 149 -188 L 149 -190 L 146 -190 L 146 -193 L 148 -193 L 145 -197 L 142 -193 L 144 -193 L 144 -190 L 138 -190 L 138 -197 L 136 -197 z " id="rect4246" style="fill:#747474;fill-opacity:1;stroke:none" transform="translate(0,1028.3622)"/>
    </g></svg>