<svg width="18.0" height="18.0" viewBox="36.0 902.3622 18.0 18.0"><g id="car_parts-18" inkscape:label="car_parts-18">
      <g id="g6275" transform="translate(0,-1)">
        <path d="m 40,-122 0,2 -2,0 0,10 14,0 0,-10 -2,0 0,-2 -2,0 0,2 -6,0 0,-2 -2,0 z m 1,4 1,0 0,2 2,0 0,1 -2,0 0,2 -1,0 0,-2 -2,0 0,-1 2,0 0,-2 z m 5,2 5,0 0,1 -5,0 0,-1 z" id="path6265" inkscape:connector-curvature="0" style="opacity:0.3;fill:#ffffff;fill-opacity:1;fill-rule:nonzero;stroke:#ffffff;stroke-width:2;stroke-linejoin:round;stroke-miterlimit:4;stroke-opacity:1;stroke-dasharray:none" transform="translate(0,1028.3622)"/>
        <path d="m 40,-122 0,2 -2,0 0,10 14,0 0,-10 -2,0 0,-2 -2,0 0,2 -6,0 0,-2 -2,0 z m 1,4 1,0 0,2 2,0 0,1 -2,0 0,2 -1,0 0,-2 -2,0 0,-1 2,0 0,-2 z m 5,2 5,0 0,1 -5,0 0,-1 z" id="rect6248" inkscape:connector-curvature="0" style="fill:#747474;fill-opacity:1;fill-rule:nonzero;stroke:none" transform="translate(0,1028.3622)"/>
      </g>
      <rect height="18" id="rect6279" style="opacity:0.29999999999999999;fill:none;fill-opacity:1;fill-rule:nonzero;stroke:none;stroke-width:2;stroke-linejoin:round;stroke-miterlimit:4;stroke-opacity:1;stroke-dasharray:none" transform="translate(0,1028.3622)" width="18" x="36" y="-126"/>
    </g></svg>