<svg width="18.0" height="18.0" viewBox="36.0 812.36218 18.0 18.0"><g id="car_repair-18" inkscape:label="car_repair-18">
      <g id="g9271" style="fill:#4d4d4d;stroke:#ffffff;stroke-opacity:1;stroke-width:2;stroke-miterlimit:4;stroke-dasharray:none;stroke-linejoin:round;opacity:0.3">
        <path d="m 42.75,-212.21875 c -0.836862,0 -1.5,0.66314 -1.5,1.5 0,0.0735 0.02113,0.14801 0.03125,0.21875 L 39,-209 l -2,3 0,5 2,0 0,-5 2.71875,-3.625 c 0.271328,0.25594 0.628818,0.4375 1.03125,0.4375 0.836862,0 1.53125,-0.69439 1.53125,-1.53125 0,-0.83686 -0.694388,-1.5 -1.53125,-1.5 z M 45,-215 l -1,1 7,5 -9,2 0,2 c -1,0 -1,2 0,2 l 2,0 c 1,-2 1,-2 3,-2 2,0 2,0 3,2 l 3,0 0,-6 0,-2 -1.013246,1.24007 z m 4.156178,12.92191 c 0,1.14769 -0.930392,2.07809 -2.078089,2.07809 C 45.930392,-200 45,-200.9304 45,-202.07809 c 0,-1.1477 0.930392,-2.07809 2.078089,-2.07809 1.147697,0 2.078089,0.93039 2.078089,2.07809 z" id="path9273" inkscape:connector-curvature="0" sodipodi:nodetypes="sscccccccssscccccscsccccccsssss" style="font-size:medium;font-style:normal;font-variant:normal;font-weight:normal;font-stretch:normal;text-indent:0;text-align:start;text-decoration:none;line-height:normal;letter-spacing:normal;word-spacing:normal;text-transform:none;direction:ltr;block-progression:tb;writing-mode:lr-tb;text-anchor:start;baseline-shift:baseline;color:#000000;fill:#747474;fill-opacity:1;stroke:#ffffff;stroke-width:2;marker:none;visibility:visible;display:inline;overflow:visible;enable-background:accumulate;font-family:Sans;-inkscape-font-specification:Sans;stroke-opacity:1;stroke-miterlimit:4;stroke-dasharray:none;stroke-linejoin:round" transform="translate(0,1028.3622)"/>
      </g>
      <g id="g7621" style="fill:#4d4d4d">
        <path d="m 42.75,-212.21875 c -0.836862,0 -1.5,0.66314 -1.5,1.5 0,0.0735 0.02113,0.14801 0.03125,0.21875 L 39,-209 l -2,3 0,5 2,0 0,-5 2.71875,-3.625 c 0.271328,0.25594 0.628818,0.4375 1.03125,0.4375 0.836862,0 1.53125,-0.69439 1.53125,-1.53125 0,-0.83686 -0.694388,-1.5 -1.53125,-1.5 z M 45,-215 l -1,1 7,5 -9,2 0,2 c -1,0 -1,2 0,2 l 2,0 c 1,-2 1,-2 3,-2 2,0 2,0 3,2 l 3,0 0,-6 0,-2 -1.013246,1.24007 z m 4.156178,12.92191 c 0,1.14769 -0.930392,2.07809 -2.078089,2.07809 C 45.930392,-200 45,-200.9304 45,-202.07809 c 0,-1.1477 0.930392,-2.07809 2.078089,-2.07809 1.147697,0 2.078089,0.93039 2.078089,2.07809 z" id="path4902" inkscape:connector-curvature="0" sodipodi:nodetypes="sscccccccssscccccscsccccccsssss" style="font-size:medium;font-style:normal;font-variant:normal;font-weight:normal;font-stretch:normal;text-indent:0;text-align:start;text-decoration:none;line-height:normal;letter-spacing:normal;word-spacing:normal;text-transform:none;direction:ltr;block-progression:tb;writing-mode:lr-tb;text-anchor:start;baseline-shift:baseline;color:#000000;fill:#747474;fill-opacity:1;stroke:none;stroke-width:1.37800002000000021;marker:none;visibility:visible;display:inline;overflow:visible;enable-background:accumulate;font-family:Sans;-inkscape-font-specification:Sans" transform="translate(0,1028.3622)"/>
      </g>
      <rect height="18" id="rect7646" rx="0.49725246" ry="0.032999195" style="opacity:0.3;fill:none;stroke:none" width="18" x="36" y="812.36218"/>
    </g></svg>