<svg width="18.0" height="18.0" viewBox="102.0 812.3622 18.0 18.0"><g id="carpenter-18" inkscape:label="carpenter-18" transform="translate(30,36)">
      <rect height="18" id="rect4844" style="fill:none;stroke:none" transform="translate(0,1028.3622)" width="18" x="72" y="-252"/>
      <path d="m 75,782.3622 4,-4 c 2,0 3,0 5,-1 l 1,1 -3,3 7,7 -2,2 -7,-7 -2,2 z m -2,4 4,0 0,2 -1,0 -0.5,5 -1,0 -0.5,-5 -1,0 z" id="path4861" inkscape:connector-curvature="0" style="opacity:0.3;fill:none;stroke:#ffffff;stroke-width:2;stroke-linejoin:round;stroke-miterlimit:4;stroke-opacity:1;stroke-dasharray:none"/>
      <path d="m 75,782.3622 4,-4 c 2,0 3,0 5,-1 l 1,1 -3,3 7,7 -2,2 -7,-7 -2,2 z m -2,4 4,0 0,2 -1,0 -0.5,5 -1,0 -0.5,-5 -1,0 z" id="rect4855" inkscape:connector-curvature="0" style="fill:#747474;fill-opacity:1;fill-rule:nonzero;stroke:none"/>
    </g></svg>