<svg width="18.0" height="18.0" viewBox="36.0 848.3622 18.0 18.0"><g id="clothes-18" inkscape:label="clothes-18">
      <path d="M 41.0625 -177 L 37 -175 L 38 -171 L 41 -173 L 41 -165 L 49 -165 L 49 -173 L 52 -171 L 53 -175 L 49.0625 -177 L 47.9375 -177 C 47.921414 -175.30242 46.607126 -173.9375 45 -173.9375 C 43.392874 -173.9375 42.078586 -175.30242 42.0625 -177 L 41.0625 -177 z " id="path8026" style="fill:#ffffff;stroke:#ffffff;opacity:0.29999999999999999;stroke-opacity:1;stroke-width:2;stroke-miterlimit:4;stroke-dasharray:none;stroke-linejoin:round" transform="translate(0,1028.3622)"/>
      <path d="M 41.0625 -177 L 37 -175 L 38 -171 L 41 -173 L 41 -165 L 49 -165 L 49 -173 L 52 -171 L 53 -175 L 49.0625 -177 L 47.9375 -177 C 47.921414 -175.30242 46.607126 -173.9375 45 -173.9375 C 43.392874 -173.9375 42.078586 -175.30242 42.0625 -177 L 41.0625 -177 z " id="rect7894-0" style="fill:#747474;stroke:none;fill-opacity:1" transform="translate(0,1028.3622)"/>
      <rect height="18" id="rect8028" style="opacity:0.29999999999999999;fill:none;fill-opacity:1;fill-rule:nonzero;stroke:none;stroke-width:2;stroke-linejoin:round;stroke-miterlimit:4;stroke-opacity:1;stroke-dasharray:none" transform="translate(0,1028.3622)" width="18" x="36" y="-180"/>
    </g></svg>