<svg width="18.0" height="18.0" viewBox="36.0 884.36218 18.0 18.0"><g id="computer-18" inkscape:label="computer-18">
      <path d="m 50.007921,886.36188 -10.014259,0 C 39.626241,886.36188 39,886.99772 39,887.3622 l 0,7 c 0,0.36448 0.62608,1.03296 0.993501,1.03296 l 10.014259,0 c 0.367422,0 0.99224,-0.66848 0.99224,-1.03296 l 0,-7 c 1.6e-4,-0.36448 -0.624658,-1.00032 -0.992079,-1.00032 z M 49,893.3622 l -8,0 0,-5 8,0 z m 2,7 -12,0 c 0,0 -1,0 -1,-1 2,-3 2,-3 2,-3 l 10,0 c 0,0 0,0 2,3 0,1 -1,1 -1,1 z" id="path16553" inkscape:connector-curvature="0" sodipodi:nodetypes="ssssssscscccccccccccc" style="fill:none;fill-opacity:1;stroke:#ffffff;stroke-opacity:1;opacity:0.3"/>
      <path d="m 50.007921,886.36188 -10.014259,0 C 39.626241,886.36188 39,886.99772 39,887.3622 l 0,7 c 0,0.36448 0.62608,1.03296 0.993501,1.03296 l 10.014259,0 c 0.367422,0 0.99224,-0.66848 0.99224,-1.03296 l 0,-7 c 1.6e-4,-0.36448 -0.624658,-1.00032 -0.992079,-1.00032 z M 49,893.3622 l -8,0 0,-5 8,0 z m 2,7 -12,0 c 0,0 -1,0 -1,-1 2,-3 2,-3 2,-3 l 10,0 c 0,0 0,0 2,3 0,1 -1,1 -1,1 z" id="path6551" inkscape:connector-curvature="0" sodipodi:nodetypes="ssssssscscccccccccccc" style="fill:#747474;fill-opacity:1"/>
      <rect height="18" id="rect16535" style="opacity:0.3;fill:none;stroke:none" width="18" x="36" y="884.36218"/>
    </g></svg>