<svg width="18.0" height="18.0" viewBox="72.0 956.3622 18.0 18.0"><g id="courthouse-18" inkscape:label="courthouse-18">
      <g id="g9103" style="fill:none;stroke:#ffffff;stroke-opacity:1;opacity:0.29999999999999999;stroke-width:2;stroke-miterlimit:4;stroke-dasharray:none;stroke-linejoin:round">
        <path d="m 80.9051,18.775188 -25,0 0,68.75 25,0 0,6.25 -62.5,0 0,-6.25 25,0 0,-68.75 -25,0 0,-6.25 25,0 0,-12.5000005 12.5,0 0,12.5000005 25,0 z" id="path9105" inkscape:connector-curvature="0" sodipodi:nodetypes="ccccccccccccccccc" style="fill:none;stroke:#ffffff;stroke-opacity:1;stroke-width:12.50000000000000000;stroke-miterlimit:4;stroke-dasharray:none;stroke-linejoin:round" transform="matrix(0.16,0,0,0.16,73.055184,957.35817)"/>
        <path d="m 76,960.3622 -3,6 c 0,0.8022 1.61664,2 3,2 1.38432,0 3,-1.1978 3,-2 z m -2.58432,6 2.58432,-5.02912 2.58432,5.02912 z" id="path9107" inkscape:connector-curvature="0" sodipodi:nodetypes="ccscccccc" style="fill:none;stroke:#ffffff;stroke-opacity:1;stroke-width:2;stroke-miterlimit:4;stroke-dasharray:none;stroke-linejoin:round"/>
        <path d="m 86,960.3622 -3,6 c 0,0.8022 1.61568,2 3,2 1.38336,0 3,-1.1978 3,-2 z m -2.58448,6 2.58432,-5.02912 2.58448,5.02912 z" id="path9109" inkscape:connector-curvature="0" sodipodi:nodetypes="ccscccccc" style="fill:none;stroke:#ffffff;stroke-opacity:1;stroke-width:2;stroke-miterlimit:4;stroke-dasharray:none;stroke-linejoin:round"/>
      </g>
      <g id="g9098" style="fill:#4d4d4d">
        <path d="m 80.9051,18.775188 -25,0 0,68.75 25,0 0,6.25 -62.5,0 0,-6.25 25,0 0,-68.75 -25,0 0,-6.25 25,0 0,-12.5000005 12.5,0 0,12.5000005 25,0 z" id="polygon9055" inkscape:connector-curvature="0" sodipodi:nodetypes="ccccccccccccccccc" style="fill:#747474;fill-opacity:1" transform="matrix(0.16,0,0,0.16,73.055184,957.35817)"/>
        <path d="m 76,960.3622 -3,6 c 0,0.8022 1.61664,2 3,2 1.38432,0 3,-1.1978 3,-2 z m -2.58432,6 2.58432,-5.02912 2.58432,5.02912 z" id="path9057" inkscape:connector-curvature="0" sodipodi:nodetypes="ccscccccc" style="fill:#747474;fill-opacity:1"/>
        <path d="m 86,960.3622 -3,6 c 0,0.8022 1.61568,2 3,2 1.38336,0 3,-1.1978 3,-2 z m -2.58448,6 2.58432,-5.02912 2.58448,5.02912 z" id="path9059" inkscape:connector-curvature="0" sodipodi:nodetypes="ccscccccc" style="fill:#747474;fill-opacity:1"/>
      </g>
      <rect height="18" id="rect9096" style="opacity:0.29999999999999999;fill:none;stroke:none;stroke-width:2;stroke-linecap:round;stroke-linejoin:round;stroke-miterlimit:4;stroke-opacity:1;stroke-dasharray:none" transform="translate(0,1028.3622)" width="18" x="72" y="-72"/>
    </g></svg>