<svg width="18.0" height="18.0" viewBox="0.0 848.36218 18.0 18.0"><g id="drinking_water_well-18" inkscape:label="drinking_water_well-18">
      <rect height="18" id="rect9684" style="opacity:0.3;fill:none;stroke:none" width="18" x="0" y="848.36218"/>
      <path d="m 3,857.3622 1,7 4,0 1,-7 z m 1,1 4,0 -0.3,2 -3.4,0 m 0.7000007,-3.9805 0,-2 c 0,-1 1,-2 2,-2 l 3.0000003,0 -4.03e-5,-2.01948 L 8,850.3622 c -0.99996,0 -0.99996,-1 0,-1 l 5,0 c 1.00004,0 1.00004,1 0,1 l -2.00004,2e-5 4e-5,2.01948 3,-0.0195 0,11.95125 2,0.0293 0,1 -14.0000593,0.0195 0,-1 L 12,864.3622 l 0,-9.99998 c 0,0 -0.93338,0.0195 -4.0000593,0.0195 -0.51894,0 -0.93974,0.3005 -0.93974,0.8196 l -0.0602,1.18036 z" id="path9776" inkscape:connector-curvature="0" sodipodi:nodetypes="cccccccccccccccccccccccccccccccc" style="fill:none;fill-opacity:1;fill-rule:nonzero;stroke:#ffffff;stroke-opacity:1;opacity:0.29999999999999999;stroke-width:2;stroke-miterlimit:4;stroke-dasharray:none;stroke-linejoin:round"/>
      <path d="m 3,857.3622 1,7 4,0 1,-7 z m 1,1 4,0 -0.3,2 -3.4,0 m 0.7000007,-3.9805 0,-2 c 0,-1 1,-2 2,-2 l 3.0000003,0 -4.03e-5,-2.01948 L 8,850.3622 c -0.99996,0 -0.99996,-1 0,-1 l 5,0 c 1.00004,0 1.00004,1 0,1 l -2.00004,2e-5 4e-5,2.01948 3,-0.0195 0,11.95125 2,0.0293 0,1 -14.0000593,0.0195 0,-1 L 12,864.3622 l 0,-9.99998 c 0,0 -0.93338,0.0195 -4.0000593,0.0195 -0.51894,0 -0.93974,0.3005 -0.93974,0.8196 l -0.0602,1.18036 z" id="path9690" inkscape:connector-curvature="0" sodipodi:nodetypes="cccccccccccccccccccccccccccccccc" style="fill:#747474;fill-opacity:1;fill-rule:nonzero"/>
    </g></svg>