<svg width="18.0" height="18.0" viewBox="0.0 866.36218 18.0 18.0"><g id="drinking_water-18" inkscape:label="drinking_water-18">
      <rect height="18" id="rect7026" style="opacity:0.3;fill:none;stroke:none" width="18" x="0" y="866.36218"/>
      <g id="g3894">
        <path d="m 3,875.3622 1,8 4,0 1,-8 z m 1,1 4,0 -0.3,2 -3.4,0 m 0.7,-4 0,-2 c 0,-1 0.9999999,-2 2,-2 l 3,0 0,-2 -2,0 c -1,0 -1,-1 0,-1 l 5,0 c 1,0 1,1 0,1 l -2,0 0,2 4,0 0,2 c 0,0 -3.933324,0 -7,0 -0.518943,0 -0.939744,0.3005 -0.939744,0.8196 L 7,874.3622 z" id="path3124" inkscape:connector-curvature="0" sodipodi:nodetypes="cccccccccccsccccccccccsccc" style="fill:#ffffff;fill-opacity:1;opacity:0.29999999999999999;stroke:#ffffff;stroke-opacity:1;stroke-width:2;stroke-miterlimit:4;stroke-dasharray:none;stroke-linejoin:round"/>
        <path d="m 3,875.3622 1,8 4,0 1,-8 z m 1,1 4,0 -0.3,2 -3.4,0 m 0.7,-4 0,-2 c 0,-1 0.9999999,-2 2,-2 l 3,0 0,-2 -2,0 c -1,0 -1,-1 0,-1 l 5,0 c 1,0 1,1 0,1 l -2,0 0,2 4,0 0,2 c 0,0 -3.933324,0 -7,0 -0.518943,0 -0.939744,0.3005 -0.939744,0.8196 L 7,874.3622 z" id="path6977" inkscape:connector-curvature="0" sodipodi:nodetypes="cccccccccccsccccccccccsccc" style="fill:#747474;fill-opacity:1"/>
      </g>
    </g></svg>