<svg width="18.0" height="18.0" viewBox="72.0 812.36218 18.0 18.0"><g id="dry_cleaning-18" inkscape:label="dry_cleaning-18">
      <rect height="18" id="rect6625" style="opacity:0.3;fill:none;stroke:none" width="18" x="72" y="812.36218"/>
      <path d="m 79,-205 c 0,1.10457 0.895431,2 2,2 1.104569,0 2,-0.89543 2,-2 l -4,0 z m -4,-5 0,10 12,0 0,-10 -12,0 z m 6,2 c 1.656854,0 3,1.34315 3,3 0,1.65685 -1.343146,3 -3,3 -1.656854,0 -3,-1.34315 -3,-3 0,-1.65685 1.343146,-3 3,-3 z m -5.5625,-6 C 75.015625,-213.9531 75,-213.75 75,-213 l 0,2 12,0 0,-2 c 0,-1 0,-1 -1,-1 -3.214405,5.4e-4 -6.785524,-6.2e-4 -10,0 -0.25,0 -0.421875,-0.0156 -0.5625,0 z M 77,-213.5 c 0.552284,0 1,0.44772 1,1 0,0.55228 -0.447716,1 -1,1 -0.552284,0 -1,-0.44772 -1,-1 0,-0.55228 0.447716,-1 1,-1 z m 3,0 c 0.552284,0 1,0.44772 1,1 0,0.55228 -0.447716,1 -1,1 -0.552284,0 -1,-0.44772 -1,-1 0,-0.55228 0.447716,-1 1,-1 z" id="path6684" style="fill:none;fill-opacity:1;fill-rule:nonzero;stroke:#ffffff;stroke-opacity:1;opacity:0.29999999999999999;stroke-width:2;stroke-miterlimit:4;stroke-dasharray:none;stroke-linejoin:round" transform="translate(0,1028.3622)"/>
      <path d="m 79,-205 c 0,1.10457 0.895431,2 2,2 1.104569,0 2,-0.89543 2,-2 l -4,0 z m -4,-5 0,10 12,0 0,-10 -12,0 z m 6,2 c 1.656854,0 3,1.34315 3,3 0,1.65685 -1.343146,3 -3,3 -1.656854,0 -3,-1.34315 -3,-3 0,-1.65685 1.343146,-3 3,-3 z m -5.5625,-6 C 75.015625,-213.9531 75,-213.75 75,-213 l 0,2 12,0 0,-2 c 0,-1 0,-1 -1,-1 -3.214405,5.4e-4 -6.785524,-6.2e-4 -10,0 -0.25,0 -0.421875,-0.0156 -0.5625,0 z M 77,-213.5 c 0.552284,0 1,0.44772 1,1 0,0.55228 -0.447716,1 -1,1 -0.552284,0 -1,-0.44772 -1,-1 0,-0.55228 0.447716,-1 1,-1 z m 3,0 c 0.552284,0 1,0.44772 1,1 0,0.55228 -0.447716,1 -1,1 -0.552284,0 -1,-0.44772 -1,-1 0,-0.55228 0.447716,-1 1,-1 z" id="path6675" style="fill:#747474;fill-opacity:1;fill-rule:nonzero;stroke:none" transform="translate(0,1028.3622)"/>
    </g></svg>