<svg width="18.0" height="18.0" viewBox="72.0 866.36218 18.0 18.0"><g id="fire_hydrant-18" inkscape:label="fire_hydrant-18">
      <path d="m 79,869.3622 c 0,1 10e-7,0.99999 10e-7,0.99999 l -1.000001,0 c -1,1.00001 -1,1.00001 0,2 l 1,0 c 0,0 0,1.45877 0,2 -1,0 -1,0 -2,1 l -1,0 0,2 1,0 c 1,1 1,1 2,1 0,4 -4e-6,3 -4e-6,3 l -2,1 0,1 8,10e-6 0,-1 -2,-1.00001 c 0,0 -0.01546,-1.28303 4e-6,-3 1,0 1,0 2,-1 1,0 1,0 1,0 l 0,-2 c 0,0 0,0 -1,0 -1,-1 -1,-1 -2,-1 l 0,-2 1,10e-6 c 1,-1 1,-1 0,-2 l -1,-10e-6 c 0,-1 0,10e-6 0,-0.99999 -1,-2 -3,-2 -4,0 z" id="path15027" inkscape:connector-curvature="0" sodipodi:nodetypes="ccccccccccccccccccccccccccccc" style="fill:none;stroke:#ffffff;stroke-width:2;stroke-miterlimit:4;stroke-dasharray:none;stroke-opacity:1;opacity:0.29999999999999999;stroke-linejoin:round"/>
      <path d="m 79,869.3622 c 0,1 10e-7,0.99999 10e-7,0.99999 l -1.000001,0 c -1,1.00001 -1,1.00001 0,2 l 1,0 c 0,0 0,1.45877 0,2 -1,0 -1,0 -2,1 l -1,0 0,2 1,0 c 1,1 1,1 2,1 0,4 -4e-6,3 -4e-6,3 l -2,1 0,1 8,10e-6 0,-1 -2,-1.00001 c 0,0 -0.01546,-1.28303 4e-6,-3 1,0 1,0 2,-1 1,0 1,0 1,0 l 0,-2 c 0,0 0,0 -1,0 -1,-1 -1,-1 -2,-1 l 0,-2 1,10e-6 c 1,-1 1,-1 0,-2 l -1,-10e-6 c 0,-1 0,10e-6 0,-0.99999 -1,-2 -3,-2 -4,0 z" id="path4" inkscape:connector-curvature="0" sodipodi:nodetypes="ccccccccccccccccccccccccccccc" style="fill:#747474;stroke:#000000;stroke-width:0.00449034000000000;fill-opacity:1"/>
      <rect height="18" id="rect15011" style="opacity:0.3;fill:none;stroke:none" width="18" x="72" y="866.36218"/>
    </g></svg>