<svg width="18.0" height="18.0" viewBox="36.0 956.3622 18.0 18.0"><g id="funeral_directors-18" inkscape:label="funeral_directors-18" transform="translate(-36,-36)">
      <path d="m 79,-35 -3,4 3,12 3,0 3,-12 -3,-4 -3,0 z m 1,2 1,0 0,2 2,0 0,1 -2,0 0,5 -1,0 0,-5 -2,0 0,-1 2,0 0,-2 z" id="path8626" inkscape:connector-curvature="0" style="opacity:0.3;fill:#747474;fill-opacity:1;stroke:#ffffff;stroke-width:2;stroke-linejoin:round;stroke-miterlimit:4;stroke-opacity:1;stroke-dasharray:none" transform="translate(0,1028.3622)"/>
      <path d="m 79,-35 -3,4 3,12 3,0 3,-12 -3,-4 -3,0 z m 1,2 1,0 0,2 2,0 0,1 -2,0 0,5 -1,0 0,-5 -2,0 0,-1 2,0 0,-2 z" id="path3815" inkscape:connector-curvature="0" style="fill:#747474;fill-opacity:1;stroke:none" transform="translate(0,1028.3622)"/>
      <rect height="18" id="rect8618" style="opacity:0.3;fill:none;stroke:none" transform="translate(0,1028.3622)" width="18" x="72" y="-36"/>
    </g></svg>