<svg width="18.0" height="18.0" viewBox="0.0 920.36218 18.0 18.0"><g id="gambling-18" inkscape:label="gambling-18">
      <g id="g15545" style="stroke:#ffffff;stroke-opacity:1;fill:none;opacity:0.29999999999999999;stroke-width:2;stroke-miterlimit:4;stroke-dasharray:none;stroke-linejoin:round">
        <path d="m 6,-105 c -2,0 -3,1 -3,3 l 0,6 c 0,2 1,3 3,3 l 6,0 c 2,0 3,-1 3,-3 l 0,-6 c 0,-2 -1,-3 -3,-3 z m 6,2 c 0.828427,0 1,0.17157 1,1 0,0.82843 -0.171573,1 -1,1 -0.828427,0 -1,-0.17157 -1,-1 0,-0.82843 0.171573,-1 1,-1 z m -3,3 c 0.8284271,0 1,0.171573 1,1 0,0.828427 -0.1715729,1 -1,1 -0.8284271,0 -1,-0.171573 -1,-1 0,-0.828427 0.1715729,-1 1,-1 z m -3,3 c 0.8284271,0 1,0.171573 1,1 0,0.828427 -0.1715729,1 -1,1 -0.8284271,0 -1,-0.171573 -1,-1 0,-0.828427 0.1715729,-1 1,-1 z" id="path15547" inkscape:connector-curvature="0" sodipodi:nodetypes="ssssssssssssssssssssssss" style="fill:none;fill-opacity:1;stroke:#ffffff;stroke-opacity:1;stroke-width:2;stroke-miterlimit:4;stroke-dasharray:none;stroke-linejoin:round" transform="translate(0,1028.3622)"/>
      </g>
      <g id="g6463">
        <path d="m 6,-105 c -2,0 -3,1 -3,3 l 0,6 c 0,2 1,3 3,3 l 6,0 c 2,0 3,-1 3,-3 l 0,-6 c 0,-2 -1,-3 -3,-3 z m 6,2 c 0.828427,0 1,0.17157 1,1 0,0.82843 -0.171573,1 -1,1 -0.828427,0 -1,-0.17157 -1,-1 0,-0.82843 0.171573,-1 1,-1 z m -3,3 c 0.8284271,0 1,0.171573 1,1 0,0.828427 -0.1715729,1 -1,1 -0.8284271,0 -1,-0.171573 -1,-1 0,-0.828427 0.1715729,-1 1,-1 z m -3,3 c 0.8284271,0 1,0.171573 1,1 0,0.828427 -0.1715729,1 -1,1 -0.8284271,0 -1,-0.171573 -1,-1 0,-0.828427 0.1715729,-1 1,-1 z" id="rect11273" inkscape:connector-curvature="0" sodipodi:nodetypes="ssssssssssssssssssssssss" style="fill:#747474;fill-opacity:1;stroke:none" transform="translate(0,1028.3622)"/>
      </g>
      <rect height="18" id="rect6567" rx="0.99450493" ry="0.032999195" style="opacity:0.3;fill:none;stroke:none" width="18" x="0" y="920.36218"/>
    </g></svg>