<svg width="18.0" height="18.0" viewBox="132.0 938.3622 18.0 18.0"><g id="generator_wind-18" inkscape:label="generator_wind-18">
      <path d="m 146.78125,-88.71875 c -1.91821,0.639399 -3.28625,1.891723 -5.09375,3.6875 -0.0402,-0.0032 -0.084,0 -0.125,0 -0.35086,0 -0.68201,0.110674 -0.9375,0.3125 -1.51704,-0.389462 -2.81872,-0.661796 -4.0625,-0.65625 -0.53445,0.0024 -1.07733,0.04418 -1.625,0.15625 1.43797,1.275132 3.10564,1.843117 5.375,2.46875 0.16857,0.263461 0.39794,0.471276 0.6875,0.59375 0.003,0.0097 -0.003,0.02157 0,0.03125 l 0,7.125 -1,2 3,0 -1,-2 0,-4.09375 c 0.38185,0.890244 0.85094,1.674299 1.5,2.40625 0.4009,-1.959119 0.0134,-3.735136 -0.625,-6.15625 0.10419,-0.20546 0.1875,-0.440298 0.1875,-0.6875 0,-0.02051 8.2e-4,-0.04219 0,-0.0625 1.81318,-1.823699 3.07559,-3.195501 3.71875,-5.125 z" id="path6474" inkscape:connector-curvature="0" sodipodi:nodetypes="ccscscccccccccccscc" style="fill:none;fill-opacity:1;fill-rule:nonzero;stroke:#ffffff;stroke-opacity:1;opacity:0.29999999999999999;stroke-width:2;stroke-miterlimit:4;stroke-dasharray:none;stroke-linejoin:round" transform="translate(0,1028.3622)"/>
      <path d="m 146.78125,-88.71875 c -1.91821,0.639399 -3.28625,1.891723 -5.09375,3.6875 -0.0402,-0.0032 -0.084,0 -0.125,0 -0.35086,0 -0.68201,0.110674 -0.9375,0.3125 -1.51704,-0.389462 -2.81872,-0.661796 -4.0625,-0.65625 -0.53445,0.0024 -1.07733,0.04418 -1.625,0.15625 1.43797,1.275132 3.10564,1.843117 5.375,2.46875 0.16857,0.263461 0.39794,0.471276 0.6875,0.59375 0.003,0.0097 -0.003,0.02157 0,0.03125 l 0,7.125 -1,2 3,0 -1,-2 0,-4.09375 c 0.38185,0.890244 0.85094,1.674299 1.5,2.40625 0.4009,-1.959119 0.0134,-3.735136 -0.625,-6.15625 0.10419,-0.20546 0.1875,-0.440298 0.1875,-0.6875 0,-0.02051 8.2e-4,-0.04219 0,-0.0625 1.81318,-1.823699 3.07559,-3.195501 3.71875,-5.125 z" id="path6445" inkscape:connector-curvature="0" sodipodi:nodetypes="ccscscccccccccccscc" style="fill:#747474;fill-opacity:1;fill-rule:nonzero;stroke:none" transform="translate(0,1028.3622)"/>
      <rect height="18" id="rect6457" style="fill:none;fill-opacity:1;fill-rule:nonzero;stroke:none" transform="translate(0,1028.3622)" width="18" x="132" y="-90"/>
    </g></svg>