<svg width="12.0" height="12.0" viewBox="120.0 998.36218 12.0 12.0"><g id="government-12" inkscape:label="government-12">
      <path d="m 126.5,1002.3622 0,-1 3.5,0 -2,-1 2,-1 -4.5,0 0,3 c 0,0 -2.5,0 -2.5,2 l 6,0 c 0,-2 -2.5,-2 -2.5,-2 z m -5.5,3 10,0 0,4 -3,0 0,-1 -4,0 0,1 -3,0 z" id="path6849" inkscape:connector-curvature="0" sodipodi:nodetypes="ccccccccccccccccccc" style="fill:none;fill-opacity:1;stroke:#ffffff;stroke-opacity:1;opacity:0.29999999999999999;stroke-width:2;stroke-miterlimit:4;stroke-dasharray:none;stroke-linejoin:round"/>
      <path d="m 126.5,1002.3622 0,-1 3.5,0 -2,-1 2,-1 -4.5,0 0,3 c 0,0 -2.5,0 -2.5,2 l 6,0 c 0,-2 -2.5,-2 -2.5,-2 z m -5.5,3 10,0 0,4 -3,0 0,-1 -4,0 0,1 -3,0 z" id="path6840" inkscape:connector-curvature="0" sodipodi:nodetypes="ccccccccccccccccccc" style="fill:#525252;fill-opacity:1"/>
      <rect height="12" id="rect6842" style="opacity:0.3;fill:none;stroke:none" width="12" x="120" y="998.36218"/>
    </g></svg>