<svg width="18.0" height="18.0" viewBox="102.0 992.3622 18.0 18.0"><g id="government-18" inkscape:label="government-18">
      <path d="m 115,1001.3622 c 0,-2 -3.5,-2.5 -3.5,-2.5 l 0,-1.5 4.5,0 -1.5,-1.5 1.5,-1.5 -4.5,0 0,-1 -1,0 0,5.5 c 0,0 -3.5,0.5 -3.5,2.5 0,0 -1,0 -1,1 l 10,0 c 0,-1 -1,-1 -1,-1 z m -11,2 14,0 0,6 -5,0 0,-1 -4,0 0,1 -5,0 z" id="path6827" style="fill:none;fill-opacity:1;stroke:#ffffff;stroke-opacity:1;stroke-width:2;stroke-miterlimit:4;stroke-dasharray:none;stroke-linejoin:round;opacity:0.3"/>
      <path d="m 115,1001.3622 c 0,-2 -3.5,-2.5 -3.5,-2.5 l 0,-1.5 4.5,0 -1.5,-1.5 1.5,-1.5 -4.5,0 0,-1 -1,0 0,5.5 c 0,0 -3.5,0.5 -3.5,2.5 0,0 -1,0 -1,1 l 10,0 c 0,-1 -1,-1 -1,-1 z m -11,2 14,0 0,6 -5,0 0,-1 -4,0 0,1 -5,0 z" id="path6788" style="fill:#747474;fill-opacity:1"/>
      <rect height="18" id="rect6817" style="opacity:0.3;fill:none;stroke:none" transform="translate(0,1028.3622)" width="18" x="102" y="-36"/>
    </g></svg>