<svg width="18.0" height="18.0" viewBox="132.0 992.36218 18.0 18.0"><g id="hardware-18" inkscape:label="hardware-18">
      <path d="M 135 -34 L 135 -31 L 137 -31 L 137 -30 L 140 -29 L 140 -31 L 142 -31 L 142 -34 L 135 -34 z M 145 -34 L 144 -32 L 144 -21 L 142 -19 L 148 -19 L 146 -21 L 146 -32 L 145 -34 z M 137 -29 L 137 -27 L 140 -26 L 140 -28 L 137 -29 z M 137 -26 L 137 -24 L 140 -23 L 140 -25 L 137 -26 z M 137 -23 L 137 -20 L 138 -19 L 139 -19 L 140 -20 L 140 -22 L 137 -23 z " id="path4730" style="fill:none;fill-opacity:1;stroke:#ffffff;stroke-opacity:1;opacity:0.29999999999999999;stroke-width:2;stroke-miterlimit:4;stroke-dasharray:none;stroke-linejoin:round" transform="translate(0,1028.3622)"/>
      <path d="M 135 -34 L 135 -31 L 137 -31 L 137 -30 L 140 -29 L 140 -31 L 142 -31 L 142 -34 L 135 -34 z M 145 -34 L 144 -32 L 144 -21 L 142 -19 L 148 -19 L 146 -21 L 146 -32 L 145 -34 z M 137 -29 L 137 -27 L 140 -26 L 140 -28 L 137 -29 z M 137 -26 L 137 -24 L 140 -23 L 140 -25 L 137 -26 z M 137 -23 L 137 -20 L 138 -19 L 139 -19 L 140 -20 L 140 -22 L 137 -23 z " id="path4488" style="fill:#747474;fill-opacity:1;stroke:none" transform="translate(0,1028.3622)"/>
      <rect height="18" id="rect4500" style="fill:none;stroke:none" width="18" x="132" y="992.36218"/>
    </g></svg>