<svg width="18.0" height="18.0" viewBox="0.0 776.3622 18.0 18.0"><g id="information-18" inkscape:label="information-18">
      <path d="M 9 -249 C 5.6862915 -249 3 -246.31371 3 -243 C 3 -239.6863 5.6862915 -237 9 -237 C 12.313709 -237 15 -239.6863 15 -243 C 15 -246.31371 12.313709 -249 9 -249 z M 8 -247 L 10 -247 L 10 -245 L 8 -245 L 8 -247 z M 7 -244 L 8 -244 L 10 -244 L 10 -240 L 11 -240 L 11 -239 L 8 -239 L 7 -239 L 7 -240 L 8 -240 L 8 -243 L 7 -243 L 7 -244 z " id="path6421" style="fill:none;fill-opacity:1;stroke:#ffffff;stroke-opacity:1;opacity:0.29999999999999999;stroke-width:2;stroke-miterlimit:4;stroke-dasharray:none;stroke-linejoin:round" transform="translate(0,1028.3622)"/>
      <path d="M 9 -249 C 5.6862915 -249 3 -246.31371 3 -243 C 3 -239.6863 5.6862915 -237 9 -237 C 12.313709 -237 15 -239.6863 15 -243 C 15 -246.31371 12.313709 -249 9 -249 z M 8 -247 L 10 -247 L 10 -245 L 8 -245 L 8 -247 z M 7 -244 L 8 -244 L 10 -244 L 10 -240 L 11 -240 L 11 -239 L 8 -239 L 7 -239 L 7 -240 L 8 -240 L 8 -243 L 7 -243 L 7 -244 z " id="path6408" style="fill:#747474;fill-opacity:1;stroke:none" transform="translate(0,1028.3622)"/>
      <rect height="18" id="rect6423" style="opacity:0.29999999999999999;fill:none;stroke:none;stroke-width:2;stroke-linecap:butt;stroke-linejoin:round;stroke-miterlimit:4;stroke-opacity:1;stroke-dasharray:none" transform="translate(0,1028.3622)" width="18" x="0" y="-252"/>
    </g></svg>