<svg width="18.0" height="18.0" viewBox="36.0 938.36218 18.0 18.0"><g id="mobile_phone-18" inkscape:label="mobile_phone-18">
      <path d="m 47,941.3622 -2,0 0,-2 -2,0 0,2 c -1.1185,0.0818 -2,0.90528 -2,2 l 0,10 c 0,1.1488 0.803333,2 2,2 l 4,0 c 1.196667,0 2,-0.8512 2,-2 l 0,-10 c 0,-1.1488 -0.803333,-2 -2,-2 z m 1,9 -6,0 0,-7 6,0 z" id="path10581" inkscape:connector-curvature="0" sodipodi:nodetypes="sccccsssssssccccc" style="fill:#ffffff;fill-opacity:1;opacity:0.29999999999999999;stroke:#ffffff;stroke-opacity:1;stroke-width:2;stroke-miterlimit:4;stroke-dasharray:none;stroke-linejoin:round"/>
      <path d="m 47,941.3622 -2,0 0,-2 -2,0 0,2 c -1.1185,0.0818 -2,0.90528 -2,2 l 0,10 c 0,1.1488 0.803333,2 2,2 l 4,0 c 1.196667,0 2,-0.8512 2,-2 l 0,-10 c 0,-1.1488 -0.803333,-2 -2,-2 z m 1,9 -6,0 0,-7 6,0 z" id="path10523" inkscape:connector-curvature="0" sodipodi:nodetypes="sccccsssssssccccc" style="fill:#747474;fill-opacity:1"/>
      <rect height="18" id="rect10555" style="opacity:0.3;fill:none;stroke:none" width="18" x="36" y="938.36218"/>
      <path d="m 47,941.3622 -2,0 0,-2 -2,0 0,2 c -1.1185,0.0818 -2,0.90528 -2,2 l 0,10 c 0,1.1488 0.803333,2 2,2 l 4,0 c 1.196667,0 2,-0.8512 2,-2 l 0,-10 c 0,-1.1488 -0.803333,-2 -2,-2 z m 1,9 -6,0 0,-7 6,0 z" id="path10583" inkscape:connector-curvature="0" sodipodi:nodetypes="sccccsssssssccccc" style="fill:#ffffff;fill-opacity:1;opacity:0.29999999999999999;stroke:#ffffff;stroke-opacity:1;stroke-width:2;stroke-miterlimit:4;stroke-dasharray:none;stroke-linejoin:round"/>
      <path d="m 47,941.3622 -2,0 0,-2 -2,0 0,2 c -1.1185,0.0818 -2,0.90528 -2,2 l 0,10 c 0,1.1488 0.803333,2 2,2 l 4,0 c 1.196667,0 2,-0.8512 2,-2 l 0,-10 c 0,-1.1488 -0.803333,-2 -2,-2 z m 1,9 -6,0 0,-7 6,0 z" id="path10585" inkscape:connector-curvature="0" sodipodi:nodetypes="sccccsssssssccccc" style="fill:#747474;fill-opacity:1"/>
      <rect height="18" id="rect10587" style="opacity:0.3;fill:none;stroke:none" width="18" x="36" y="938.36218"/>
    </g></svg>