<svg width="18.0" height="18.0" viewBox="72.0 1010.3622 18.0 18.0"><g id="money_transfer-18" inkscape:label="money_transfer-18">
      <path d="m 74,-15 0,12 11,0 -4,-6 4,-6 z m 11,0 0,12 4,-6 z m -8,2 2,0 0,1 c 0.304638,0.3836 0.831839,0.6848 1,1.125 L 80,-10 c -0.383659,-0.3046 -0.68481,-0.8319 -1.125,-1 l -1.875,0 3,3 0,1 c -0.304638,0.3836 -0.831839,0.6848 -1,1.125 L 79,-5 77,-5 77,-6 C 76.695362,-6.3836 76.168161,-6.6848 76,-7.125 L 76,-8 c 0.383659,0.3046 0.68481,0.8319 1.125,1 l 1.875,0 -3,-3 0,-1 c 0.304638,-0.3836 0.831839,-0.6848 1,-1.125 z" id="path8531" style="fill:none;fill-opacity:1;stroke:#ffffff;stroke-opacity:1;opacity:0.29999999999999999;stroke-width:2;stroke-miterlimit:4;stroke-dasharray:none;stroke-linejoin:round" transform="translate(0,1028.3622)"/>
      <path d="m 74,-15 0,12 11,0 -4,-6 4,-6 z m 11,0 0,12 4,-6 z m -8,2 2,0 0,1 c 0.304638,0.3836 0.831839,0.6848 1,1.125 L 80,-10 c -0.383659,-0.3046 -0.68481,-0.8319 -1.125,-1 l -1.875,0 0,1 2,1 1,1 0,1 c -0.304638,0.3836 -0.831839,0.6848 -1,1.125 L 79,-5 77,-5 77,-6 C 76.695362,-6.3836 76.168161,-6.6848 76,-7.125 L 76,-8 c 0.383659,0.3046 0.68481,0.8319 1.125,1 l 1.875,0 0,-1 -2,-1 -1,-1 0,-1 c 0.304638,-0.3836 0.831839,-0.6848 1,-1.125 z" id="path4505" inkscape:connector-curvature="0" sodipodi:nodetypes="ccccccccccccccccccccccccccccccccccc" style="fill:#747474;fill-opacity:1;stroke:none" transform="translate(0,1028.3622)"/>
      <rect height="18" id="rect4540" style="opacity:0.3;fill:none;stroke:none" width="18" x="72" y="1010.3622"/>
    </g></svg>