<svg width="18.0" height="18.0" viewBox="132.0 884.3622 18.0 18.0"><g id="motorcycle-18" inkscape:label="motorcycle-18">
      <rect height="18" id="rect5663" style="opacity:0.29999999999999999;fill:none;fill-opacity:1;fill-rule:nonzero;stroke:none" transform="translate(0,1028.3622)" width="18" x="132" y="-144"/>
      <path d="m 139,887.3622 -0.78125,0.78125 -3.21875,3.21875 0,2 1.5,0 -0.53125,1.0625 c -0.15299,-0.0296 -0.30748,-0.0625 -0.46875,-0.0625 -1.37479,0 -2.5,1.12521 -2.5,2.5 0,1.37479 1.12521,2.5 2.5,2.5 1.37479,0 2.5,-1.12521 2.5,-2.5 0,-0.72861 -0.34201,-1.35444 -0.84375,-1.8125 L 138,893.3622 c 1.38481,3.95499 2.8595,4.0957 5.96875,4.03125 0.24534,1.12192 1.27612,1.96875 2.46875,1.96875 1.37479,0 2.5,-1.12521 2.5,-2.5 0,-0.67107 -0.28439,-1.26845 -0.71875,-1.71875 L 149,894.3622 l 0,-1 -6,0 c -1.58167,-2.08421 -2.54453,-2 -5,-2 l 1,-4 z m -3.5,8 -0.5,1 1,1 0.6875,-1.40625 c 0.19227,0.2521 0.3125,0.56147 0.3125,0.90625 0,0.83435 -0.66565,1.5 -1.5,1.5 -0.83435,0 -1.5,-0.66565 -1.5,-1.5 0,-0.83435 0.66565,-1.5 1.5,-1.5 z m 12.03125,0.46875 c 0.2526,0.26794 0.40625,0.63003 0.40625,1.03125 0,0.83435 -0.66565,1.5 -1.5,1.5 -0.66135,0 -1.23563,-0.41105 -1.4375,-1 0.34976,-0.007 0.60994,0 1,0 l 1.53125,-1.53125 z" id="path6228" inkscape:connector-curvature="0" style="font-size:medium;font-style:normal;font-variant:normal;font-weight:normal;font-stretch:normal;text-indent:0;text-align:start;text-decoration:none;line-height:normal;letter-spacing:normal;word-spacing:normal;text-transform:none;direction:ltr;block-progression:tb;writing-mode:lr-tb;text-anchor:start;baseline-shift:baseline;opacity:0.3;color:#000000;fill:none;stroke:#ffffff;stroke-width:2;stroke-linejoin:round;stroke-miterlimit:4;stroke-opacity:1;stroke-dasharray:none;marker:none;visibility:visible;display:inline;overflow:visible;enable-background:accumulate;font-family:Sans;-inkscape-font-specification:Sans"/>
      <path d="m 139,887.3622 -0.78125,0.78125 -3.21875,3.21875 0,2 1.5,0 -0.53125,1.0625 c -0.15299,-0.0296 -0.30748,-0.0625 -0.46875,-0.0625 -1.37479,0 -2.5,1.12521 -2.5,2.5 0,1.37479 1.12521,2.5 2.5,2.5 1.37479,0 2.5,-1.12521 2.5,-2.5 0,-0.72861 -0.34201,-1.35444 -0.84375,-1.8125 L 138,893.3622 c 1.38481,3.95499 2.8595,4.0957 5.96875,4.03125 0.24534,1.12192 1.27612,1.96875 2.46875,1.96875 1.37479,0 2.5,-1.12521 2.5,-2.5 0,-0.67107 -0.28439,-1.26845 -0.71875,-1.71875 L 149,894.3622 l 0,-1 -6,0 c -1.58167,-2.08421 -2.54453,-2 -5,-2 l 1,-4 z m -3.5,8 -0.5,1 1,1 0.6875,-1.40625 c 0.19227,0.2521 0.3125,0.56147 0.3125,0.90625 0,0.83435 -0.66565,1.5 -1.5,1.5 -0.83435,0 -1.5,-0.66565 -1.5,-1.5 0,-0.83435 0.66565,-1.5 1.5,-1.5 z m 12.03125,0.46875 c 0.2526,0.26794 0.40625,0.63003 0.40625,1.03125 0,0.83435 -0.66565,1.5 -1.5,1.5 -0.66135,0 -1.23563,-0.41105 -1.4375,-1 0.34976,-0.007 0.60994,0 1,0 l 1.53125,-1.53125 z" id="path6209" inkscape:connector-curvature="0" style="font-size:medium;font-style:normal;font-variant:normal;font-weight:normal;font-stretch:normal;text-indent:0;text-align:start;text-decoration:none;line-height:normal;letter-spacing:normal;word-spacing:normal;text-transform:none;direction:ltr;block-progression:tb;writing-mode:lr-tb;text-anchor:start;baseline-shift:baseline;color:#000000;fill:#747474;fill-opacity:1;stroke:none;stroke-width:1;marker:none;visibility:visible;display:inline;overflow:visible;enable-background:accumulate;font-family:Sans;-inkscape-font-specification:Sans"/>
    </g></svg>