<svg width="18.0" height="18.0" viewBox="36.0 992.3622 18.0 18.0"><g id="ngo-18" inkscape:export-xdpi="89.996864" inkscape:export-ydpi="89.996864" inkscape:label="ngo-18">
      <g id="g4287" style="fill:#ffffff;fill-opacity:1;opacity:0.29999999999999999;stroke:#ffffff;stroke-opacity:1;stroke-width:2;stroke-miterlimit:4;stroke-dasharray:none;stroke-linejoin:round" transform="translate(1,0)">
        <g id="g4289" style="fill:#ffffff;fill-opacity:1;stroke:#ffffff;stroke-opacity:1;stroke-width:2;stroke-miterlimit:4;stroke-dasharray:none;stroke-linejoin:round">
          <path d="M 44 -35 L 44 -29 L 41 -29 L 41 -28 L 38 -28 L 38 -19 L 43 -19 L 43 -20 L 47 -20 L 47 -19 L 52 -19 L 52 -28 L 49 -28 L 49 -29 L 45 -29 L 45 -31 L 49 -31 L 47 -32.5 L 49 -34 L 45 -34 L 45.03125 -35 L 44 -35 z M 44.9375 -25.96875 C 45.41254 -25.96875 45.7937 -25.8865 46.0625 -25.6875 C 46.32922 -25.4875 46.48554 -25.19595 46.5625 -24.84375 L 45.8125 -24.71875 C 45.75826 -24.90745 45.64992 -25.04705 45.5 -25.15625 C 45.35216 -25.26465 45.160539 -25.3125 44.9375 -25.3125 C 44.600059 -25.3125 44.322921 -25.2147 44.125 -25 C 43.92292 -24.7865 43.84375 -24.45315 43.84375 -24.03125 C 43.84375 -23.57605 43.954171 -23.25735 44.15625 -23.03125 C 44.358331 -22.80305 44.608379 -22.6875 44.9375 -22.6875 C 45.09798 -22.6875 45.27302 -22.71625 45.4375 -22.78125 C 45.60006 -22.84325 45.72711 -22.9104 45.84375 -23 L 45.84375 -23.5 L 44.96875 -23.5 L 44.96875 -24.125 L 46.625 -24.125 L 46.625 -22.59375 C 46.46244 -22.43645 46.21249 -22.3063 45.90625 -22.1875 C 45.59793 -22.0688 45.31456 -22 45 -22 C 44.599999 -22 44.235421 -22.081 43.9375 -22.25 C 43.639581 -22.4177 43.43117 -22.6875 43.28125 -23 C 43.131331 -23.3125 43.03125 -23.6332 43.03125 -24 C 43.03125 -24.4 43.11469 -24.7521 43.28125 -25.0625 C 43.44797 -25.3729 43.708371 -25.61555 44.03125 -25.78125 C 44.277171 -25.90825 44.570939 -25.96875 44.9375 -25.96875 z M 49.03125 -25.96875 C 49.59589 -25.96875 50.06657 -25.7874 50.40625 -25.4375 C 50.74369 -25.0864 50.90625 -24.6241 50.90625 -24 C 50.90609 -23.3812 50.74369 -22.88015 50.40625 -22.53125 C 50.07073 -22.18115 49.593811 -22 49.03125 -22 C 48.46053 -22 48.0227 -22.18215 47.6875 -22.53125 C 47.350059 -22.87815 47.1875 -23.35935 47.1875 -23.96875 C 47.1875 -24.35935 47.22711 -24.70405 47.34375 -24.96875 C 47.43127 -25.16345 47.56675 -25.31355 47.71875 -25.46875 C 47.868829 -25.62395 48.03955 -25.7376 48.21875 -25.8125 C 48.458269 -25.9147 48.71877 -25.96875 49.03125 -25.96875 z M 39.3125 -25.90625 L 40.0625 -25.90625 L 41.625 -23.34375 L 41.625 -25.90625 L 42.34375 -25.90625 L 42.34375 -22.09375 L 41.59375 -22.09375 L 40.03125 -24.5625 L 40.03125 -22.09375 L 39.3125 -22.09375 L 39.3125 -25.90625 z M 49.03125 -25.3125 C 48.712531 -25.3125 48.475009 -25.2176 48.28125 -25 C 48.08541 -24.7802 47.96875 -24.4416 47.96875 -24 C 47.96875 -23.5667 48.08125 -23.2229 48.28125 -23 C 48.481249 -22.7751 48.722771 -22.6875 49.03125 -22.6875 C 49.339571 -22.6875 49.614579 -22.779 49.8125 -23 C 50.01042 -23.2228 50.09375 -23.5563 50.09375 -24 C 50.09375 -24.4395 50.00434 -24.7843 49.8125 -25 C 49.618899 -25.2155 49.350131 -25.3125 49.03125 -25.3125 z " id="path4291" style="fill:#ffffff;fill-opacity:1;stroke:#ffffff;stroke-opacity:1;stroke-width:2;stroke-miterlimit:4;stroke-dasharray:none;stroke-linejoin:round" transform="translate(-1,1028.3622)"/>
        </g>
      </g>
      <g id="g3511" style="fill:#4d4d4d" transform="translate(1,0)">
        <g id="g3506" style="fill:#4d4d4d">
          <path d="M 44 -35 L 44 -29 L 41 -29 L 41 -28 L 38 -28 L 38 -19 L 43 -19 L 43 -20 L 47 -20 L 47 -19 L 52 -19 L 52 -28 L 49 -28 L 49 -29 L 45 -29 L 45 -31 L 49 -31 L 47 -32.5 L 49 -34 L 45 -34 L 45.03125 -35 L 44 -35 z M 44.9375 -25.96875 C 45.41254 -25.96875 45.7937 -25.8865 46.0625 -25.6875 C 46.32922 -25.4875 46.48554 -25.19595 46.5625 -24.84375 L 45.8125 -24.71875 C 45.75826 -24.90745 45.64992 -25.04705 45.5 -25.15625 C 45.35216 -25.26465 45.160539 -25.3125 44.9375 -25.3125 C 44.600059 -25.3125 44.322921 -25.2147 44.125 -25 C 43.92292 -24.7865 43.84375 -24.45315 43.84375 -24.03125 C 43.84375 -23.57605 43.954171 -23.25735 44.15625 -23.03125 C 44.358331 -22.80305 44.608379 -22.6875 44.9375 -22.6875 C 45.09798 -22.6875 45.27302 -22.71625 45.4375 -22.78125 C 45.60006 -22.84325 45.72711 -22.9104 45.84375 -23 L 45.84375 -23.5 L 44.96875 -23.5 L 44.96875 -24.125 L 46.625 -24.125 L 46.625 -22.59375 C 46.46244 -22.43645 46.21249 -22.3063 45.90625 -22.1875 C 45.59793 -22.0688 45.31456 -22 45 -22 C 44.599999 -22 44.235421 -22.081 43.9375 -22.25 C 43.639581 -22.4177 43.43117 -22.6875 43.28125 -23 C 43.131331 -23.3125 43.03125 -23.6332 43.03125 -24 C 43.03125 -24.4 43.11469 -24.7521 43.28125 -25.0625 C 43.44797 -25.3729 43.708371 -25.61555 44.03125 -25.78125 C 44.277171 -25.90825 44.570939 -25.96875 44.9375 -25.96875 z M 49.03125 -25.96875 C 49.59589 -25.96875 50.06657 -25.7874 50.40625 -25.4375 C 50.74369 -25.0864 50.90625 -24.6241 50.90625 -24 C 50.90609 -23.3812 50.74369 -22.88015 50.40625 -22.53125 C 50.07073 -22.18115 49.593811 -22 49.03125 -22 C 48.46053 -22 48.0227 -22.18215 47.6875 -22.53125 C 47.350059 -22.87815 47.1875 -23.35935 47.1875 -23.96875 C 47.1875 -24.35935 47.22711 -24.70405 47.34375 -24.96875 C 47.43127 -25.16345 47.56675 -25.31355 47.71875 -25.46875 C 47.868829 -25.62395 48.03955 -25.7376 48.21875 -25.8125 C 48.458269 -25.9147 48.71877 -25.96875 49.03125 -25.96875 z M 39.3125 -25.90625 L 40.0625 -25.90625 L 41.625 -23.34375 L 41.625 -25.90625 L 42.34375 -25.90625 L 42.34375 -22.09375 L 41.59375 -22.09375 L 40.03125 -24.5625 L 40.03125 -22.09375 L 39.3125 -22.09375 L 39.3125 -25.90625 z M 49.03125 -25.3125 C 48.712531 -25.3125 48.475009 -25.2176 48.28125 -25 C 48.08541 -24.7802 47.96875 -24.4416 47.96875 -24 C 47.96875 -23.5667 48.08125 -23.2229 48.28125 -23 C 48.481249 -22.7751 48.722771 -22.6875 49.03125 -22.6875 C 49.339571 -22.6875 49.614579 -22.779 49.8125 -23 C 50.01042 -23.2228 50.09375 -23.5563 50.09375 -24 C 50.09375 -24.4395 50.00434 -24.7843 49.8125 -25 C 49.618899 -25.2155 49.350131 -25.3125 49.03125 -25.3125 z " id="path3462" style="fill:#747474;fill-opacity:1" transform="translate(-1,1028.3622)"/>
        </g>
      </g>
      <rect height="18" id="rect4293" style="opacity:0.29999999999999999;fill:none;fill-opacity:1;fill-rule:nonzero;stroke:none;stroke-width:2;stroke-linejoin:round;stroke-miterlimit:4;stroke-opacity:1;stroke-dasharray:none" transform="translate(0,1028.3622)" width="18" x="36" y="-36"/>
    </g></svg>