<svg width="18.0" height="18.0" viewBox="102.0 1010.3622 18.0 18.0"><g id="oxfam-18" inkscape:label="oxfam-18">
      <path d="m 110.875,1014.331 c -1.75445,0 -3.22476,1.3372 -3.46875,3.0312 l 2.09375,0 c 0.19707,-0.5851 0.70978,-1 1.375,-1 0.66522,0 1.20918,0.4149 1.40625,1 l 2.09375,0 c -0.24399,-1.694 -1.74555,-3.0312 -3.5,-3.0312 z m -3.46875,4.0312 c 0.1561,1.0369 0.76605,1.9322 1.625,2.4688 -0.86952,0.5423 -1.47373,1.4809 -1.625,2.5312 l 2.09375,0 c 0.19707,-0.5851 0.70978,-1 1.375,-1 0.66522,0 1.20918,0.4149 1.40625,1 l 2.09375,0 c -0.15036,-1.0439 -0.78586,-1.9565 -1.65625,-2.5 0.87713,-0.5353 1.4991,-1.4562 1.65625,-2.5 l -2.09375,0 c -0.19707,0.5851 -0.74104,0.9688 -1.40625,0.9688 -0.66521,0 -1.17793,-0.3837 -1.375,-0.9688 l -2.09375,0 z m 3.59375,-7 c -4.41038,0 -8,3.5897 -8,8 0,4.4104 3.58962,8 8,8 4.41038,0 8,-3.5896 8,-8 0,-4.4103 -3.58962,-8 -8,-8 z m 0,1.3334 c 3.68979,0 6.66667,2.9768 6.66667,6.6666 0,3.6898 -2.97688,6.6667 -6.66667,6.6667 -3.68979,0 -6.66667,-2.9769 -6.66667,-6.6667 0,-3.6898 2.97688,-6.6666 6.66667,-6.6666 z" id="path4285" inkscape:connector-curvature="0" style="font-size:medium;font-style:normal;font-variant:normal;font-weight:normal;font-stretch:normal;text-indent:0;text-align:start;text-decoration:none;line-height:normal;letter-spacing:normal;word-spacing:normal;text-transform:none;direction:ltr;block-progression:tb;writing-mode:lr-tb;text-anchor:start;baseline-shift:baseline;color:#000000;fill:none;fill-opacity:1;stroke:#ffffff;stroke-width:2;marker:none;visibility:visible;display:inline;overflow:visible;enable-background:accumulate;font-family:Sans;-inkscape-font-specification:Sans;stroke-opacity:1;opacity:0.29999999999999999;stroke-miterlimit:4;stroke-dasharray:none;stroke-linejoin:round"/>
      <path d="m 110.875,1014.331 c -1.75445,0 -3.22476,1.3372 -3.46875,3.0312 l 2.09375,0 c 0.19707,-0.5851 0.70978,-1 1.375,-1 0.66522,0 1.20918,0.4149 1.40625,1 l 2.09375,0 c -0.24399,-1.694 -1.74555,-3.0312 -3.5,-3.0312 z m -3.46875,4.0312 c 0.1561,1.0369 0.76605,1.9322 1.625,2.4688 -0.86952,0.5423 -1.47373,1.4809 -1.625,2.5312 l 2.09375,0 c 0.19707,-0.5851 0.70978,-1 1.375,-1 0.66522,0 1.20918,0.4149 1.40625,1 l 2.09375,0 c -0.15036,-1.0439 -0.78586,-1.9565 -1.65625,-2.5 0.87713,-0.5353 1.4991,-1.4562 1.65625,-2.5 l -2.09375,0 c -0.19707,0.5851 -0.74104,0.9688 -1.40625,0.9688 -0.66521,0 -1.17793,-0.3837 -1.375,-0.9688 l -2.09375,0 z m 3.59375,-7 c -4.41038,0 -8,3.5897 -8,8 0,4.4104 3.58962,8 8,8 4.41038,0 8,-3.5896 8,-8 0,-4.4103 -3.58962,-8 -8,-8 z m 0,1.3334 c 3.68979,0 6.66667,2.9768 6.66667,6.6666 0,3.6898 -2.97688,6.6667 -6.66667,6.6667 -3.68979,0 -6.66667,-2.9769 -6.66667,-6.6667 0,-3.6898 2.97688,-6.6666 6.66667,-6.6666 z" id="path4241" inkscape:connector-curvature="0" style="font-size:medium;font-style:normal;font-variant:normal;font-weight:normal;font-stretch:normal;text-indent:0;text-align:start;text-decoration:none;line-height:normal;letter-spacing:normal;word-spacing:normal;text-transform:none;direction:ltr;block-progression:tb;writing-mode:lr-tb;text-anchor:start;baseline-shift:baseline;color:#000000;fill:#747474;fill-opacity:1;stroke:none;stroke-width:1.5999999;marker:none;visibility:visible;display:inline;overflow:visible;enable-background:accumulate;font-family:Sans;-inkscape-font-specification:Sans"/>
      <rect height="18" id="rect4283" style="opacity:0.3;fill:none;stroke:none" transform="translate(0,1028.3622)" width="18" x="102" y="-18"/>
    </g></svg>