<svg width="18.0" height="18.0" viewBox="102.0 848.3622 18.0 18.0"><g id="pharmacy-18" inkscape:label="pharmacy-18">
      <path d="m 108,-174 -2,1.9375 0,8.0625 10,0 0,-8.25 -2,-1.75 -6,0 z m 2,2 2,0 0,2 2,0 0,2 -2,0 0,2 -2,0 0,-2 -2,0 0,-2 2,0 0,-2 z m -2,-6 0,3 6,0 0,-3 z" id="path4207" style="fill:none;fill-opacity:1;stroke:#ffffff;stroke-opacity:1;opacity:0.29999999999999999;stroke-width:2;stroke-miterlimit:4;stroke-dasharray:none;stroke-linejoin:round" transform="translate(0,1028.3622)"/>
      <path d="m 108,-174 -2,1.9375 0,8.0625 10,0 0,-8.25 -2,-1.75 -6,0 z m 2,2 2,0 0,2 2,0 0,2 -2,0 0,2 -2,0 0,-2 -2,0 0,-2 2,0 0,-2 z m -2,-6 0,3 6,0 0,-3 z" id="path4199" style="fill:#747474;fill-opacity:1;stroke:none" transform="translate(0,1028.3622)"/>
      <rect height="18" id="rect4201" style="opacity:0.29999999999999999;fill:none;fill-opacity:1;fill-rule:nonzero;stroke:none" transform="translate(0,1028.3622)" width="18" x="102" y="-180"/>
    </g></svg>