<svg width="18.0" height="18.0" viewBox="72.0 920.362197 18.0 18.0"><g id="photo-18" inkscape:label="photo-18" transform="translate(72,18.000017)">
      <path d="m 6.9980387,906.36219 -0.9989009,1.99822 -1.9978019,0 c -0.9989007,0 -1.9978019,0.99911 -1.9978019,1.99823 0.0038,2.15238 -0.00959,2.06236 0,3.99644 0,0.99912 0.9989012,1.99823 1.9978019,1.99823 3.8656009,0 6.1236521,0.02 9.9890091,0 0.998901,0 1.997802,-0.99911 1.997802,-1.99823 0.03117,-6.65038 -0.01016,-1.74954 0,-3.99644 0,-0.99912 -0.998901,-1.99823 -1.997802,-1.99823 l -1.997801,0 -0.998901,-1.99822 -3.9956043,0 z m 1.9978019,2.99733 c 1.3791944,0 2.4972524,1.1183 2.4972524,2.49778 0,1.37949 -1.118058,2.49778 -2.4972524,2.49778 -1.3791944,0 -2.4972523,-1.11829 -2.4972523,-2.49778 0,-1.37948 1.1180579,-2.49778 2.4972523,-2.49778 z" id="path15565" inkscape:connector-curvature="0" style="opacity:0.3;fill:none;stroke:#ffffff;stroke-width:2;stroke-linejoin:round;stroke-miterlimit:4;stroke-opacity:1;stroke-dasharray:none"/>
      <path d="m 6.9980387,906.36219 -0.9989009,1.99822 -1.9978019,0 c -0.9989007,0 -1.9978019,0.99911 -1.9978019,1.99823 0.0038,2.15238 -0.00959,2.06236 0,3.99644 0,0.99912 0.9989012,1.99823 1.9978019,1.99823 3.8656009,0 6.1236521,0.02 9.9890091,0 0.998901,0 1.997802,-0.99911 1.997802,-1.99823 0.03117,-6.65038 -0.01016,-1.74954 0,-3.99644 0,-0.99912 -0.998901,-1.99823 -1.997802,-1.99823 l -1.997801,0 -0.998901,-1.99822 -3.9956043,0 z m 1.9978019,2.99733 c 1.3791944,0 2.4972524,1.1183 2.4972524,2.49778 0,1.37949 -1.118058,2.49778 -2.4972524,2.49778 -1.3791944,0 -2.4972523,-1.11829 -2.4972523,-2.49778 0,-1.37948 1.1180579,-2.49778 2.4972523,-2.49778 z" id="path6343" inkscape:connector-curvature="0" style="fill:#747474;fill-opacity:1;fill-rule:nonzero;stroke:none"/>
      <rect height="18" id="rect6559" rx="0.99450493" ry="0.032999195" style="opacity:0.3;fill:none;stroke:none" width="18" x="0" y="902.36218"/>
    </g></svg>