<?xml version="1.0" encoding="UTF-8" standalone="no"?>
<svg
   xmlns:dc="http://purl.org/dc/elements/1.1/"
   xmlns:cc="http://creativecommons.org/ns#"
   xmlns:rdf="http://www.w3.org/1999/02/22-rdf-syntax-ns#"
   xmlns:svg="http://www.w3.org/2000/svg"
   xmlns="http://www.w3.org/2000/svg"
   xmlns:sodipodi="http://sodipodi.sourceforge.net/DTD/sodipodi-0.dtd"
   xmlns:inkscape="http://www.inkscape.org/namespaces/inkscape"
   width="18.0"
   height="18.0"
   viewBox="-18.0 884.36218 18.0 18.0"
   id="svg2"
   version="1.1"
   inkscape:version="0.48.4 r9939"
   sodipodi:docname="pump-manual-18.svg">
  <metadata
     id="metadata12">
    <rdf:RDF>
      <cc:Work
         rdf:about="">
        <dc:format>image/svg+xml</dc:format>
        <dc:type
           rdf:resource="http://purl.org/dc/dcmitype/StillImage" />
      </cc:Work>
    </rdf:RDF>
  </metadata>
  <defs
     id="defs10" />
  <sodipodi:namedview
     pagecolor="#ffffff"
     bordercolor="#666666"
     borderopacity="1"
     objecttolerance="10"
     gridtolerance="10"
     guidetolerance="10"
     inkscape:pageopacity="0"
     inkscape:pageshadow="2"
     inkscape:window-width="640"
     inkscape:window-height="480"
     id="namedview8"
     showgrid="false"
     inkscape:zoom="13.111111"
     inkscape:cx="9"
     inkscape:cy="9"
     inkscape:window-x="68"
     inkscape:window-y="0"
     inkscape:window-maximized="0"
     inkscape:current-layer="svg2" />
  <g
     id="pump-manual-18"
     inkscape:label="pump-manual-18"
     transform="translate(-18,-2e-5)">
    <path
       d="m 10,885.3622 c -2.417618,-0.56606 -3.217033,1.73467 -2,3 l 1,1 0,1 c 0,0 0,0 -5,0 -1,0 -2,1 -2,2 0,2 0,2 0,2 l -1,0 0,1 4,0 0,-1 -1,0 0,-2 c 0,0 2.688722,0 4,-2e-5 l 0,7.00002 -2,1 -5,0 0,1 16,0 0,-1 -5,0 -2,-1 0,-11 1,-1 c 0,0 3,1 3,4 0,3 3,4 3,4 l 0,-1 c 0,0 -2,0 -2,-3 0,-5 -5,-6 -5,-6 z"
       id="path9988"
       inkscape:connector-curvature="0"
       sodipodi:nodetypes="cccccsccccccccccccccccccccccc"
       style="opacity:0.3;fill:none;stroke:#ffffff;stroke-width:2;stroke-linejoin:round;stroke-miterlimit:4;stroke-opacity:1;stroke-dasharray:none" />
    <path
       d="m 10,885.3622 c -2.417618,-0.56606 -3.217033,1.73467 -2,3 l 1,1 0,1 c 0,0 0,0 -5,0 -1,0 -2,1 -2,2 0,2 0,2 0,2 l -1,0 0,1 4,0 0,-1 -1,0 0,-2 c 0,0 2.688722,0 4,-2e-5 l 0,7.00002 -2,1 -5,0 0,1 16,0 0,-1 -5,0 -2,-1 0,-11 1,-1 c 0,0 3,1 3,4 0,3 3,4 3,4 l 0,-1 c 0,0 -2,0 -2,-3 0,-5 -5,-6 -5,-6 z"
       id="rect10180"
       inkscape:connector-curvature="0"
       sodipodi:nodetypes="cccccsccccccccccccccccccccccc"
       style="fill:#747474;fill-opacity:1;fill-rule:nonzero;stroke:none" />
    <rect
       height="18"
       id="rect10183"
       style="fill:none;stroke:none"
       transform="scale(-1,1)"
       width="18"
       x="-18"
       y="884.36218" />
  </g>
</svg>
