<svg width="18.0" height="18.0" viewBox="0.0 830.36218 18.0 18.0"><g id="pump-powered-18" inkscape:label="pump-powered-18">
      <path d="m 4,834.36219 c -1,0 -2,1 -2,2 0,2 0,2 0,2 l -1,1 0,2 4,0 0,-2 -1,-1 0,-2 c 0,0 4.68872,-1e-5 6,-3e-5 l 0,4.00003 c -3,1.00001 -3,5.00001 -1,6.00001 l -8,0 0,1 16,-10e-6 0,-1 -4,0 0,-1 4,10e-6 0,-1 -4,0 0,-1 4,0 0,-1 -5,-2.00001 0,-4 c 0,-1 -1,-2 -2,-2 l -2,0 0,-2 2,0 c 1,0 1,-1 0,-1 l -5,0 c -1,0 -1,1 0,1 l 2,0 0,2 z" id="path9970" inkscape:connector-curvature="0" sodipodi:nodetypes="cscccccccccccccccccccccccccccccccccc" style="fill:none;fill-opacity:1;fill-rule:nonzero;stroke:#ffffff;stroke-opacity:1;opacity:0.29999999999999999;stroke-width:2;stroke-miterlimit:4;stroke-dasharray:none;stroke-linejoin:round"/>
      <path d="m 4,834.36219 c -1,0 -2,1 -2,2 0,2 0,2 0,2 l -1,1 0,2 4,0 0,-2 -1,-1 0,-2 c 0,0 4.68872,-1e-5 6,-3e-5 l 0,4.00003 c -3,1.00001 -3,5.00001 -1,6.00001 l -8,0 0,1 16,-10e-6 0,-1 -4,0 0,-1 4,10e-6 0,-1 -4,0 0,-1 4,0 0,-1 -5,-2.00001 0,-4 c 0,-1 -1,-2 -2,-2 l -2,0 0,-2 2,0 c 1,0 1,-1 0,-1 l -5,0 c -1,0 -1,1 0,1 l 2,0 0,2 z" id="path9953" inkscape:connector-curvature="0" sodipodi:nodetypes="cscccccccccccccccccccccccccccccccccc" style="fill:#747474;fill-opacity:1;fill-rule:nonzero;stroke:none"/>
      <rect height="18" id="rect9955" style="fill:none;stroke:none" width="18" x="0" y="830.36218"/>
    </g></svg>