<svg width="18.0" height="18.0" viewBox="0.0 1010.3622 18.0 18.0"><g id="shop-18" inkscape:label="shop-18">
      <path d="m 9,1013.3622 c -2.8674418,0 -4.8543401,3.2331 -5,7 l -2,0 3,6 8,0 3,-6 -2,0 c -0.01616,-3.6882 -2.132558,-7 -5,-7 z m 0,1.3125 c 2.259432,0 3.566238,2.7163 3.6875,5.6875 l -7.375,0 c 0.088871,-2.8665 1.4280676,-5.6875 3.6875,-5.6875 z" id="path16763" inkscape:connector-curvature="0" sodipodi:nodetypes="accccccaacca" style="fill:none;fill-opacity:1;stroke:#ffffff;stroke-opacity:1;opacity:0.29999999999999999;stroke-width:2;stroke-miterlimit:4;stroke-dasharray:none;stroke-linejoin:round"/>
      <path d="m 9,1013.3622 c -2.8674418,0 -4.8543401,3.2331 -5,7 l -2,0 3,6 8,0 3,-6 -2,0 c -0.01616,-3.6882 -2.132558,-7 -5,-7 z m 0,1.3125 c 2.259432,0 3.566238,2.7163 3.6875,5.6875 l -7.375,0 c 0.088871,-2.8665 1.4280676,-5.6875 3.6875,-5.6875 z" id="rect10413-4" inkscape:connector-curvature="0" sodipodi:nodetypes="accccccaacca" style="fill:#747474;fill-opacity:1;stroke:none"/>
      <rect height="18" id="rect16765" style="opacity:0.29999999999999999;fill:none;stroke:none;stroke-width:2;stroke-linecap:round;stroke-linejoin:round;stroke-miterlimit:4;stroke-opacity:1;stroke-dasharray:none" transform="translate(0,1028.3622)" width="18" x="0" y="-18"/>
    </g></svg>