<svg width="18.0" height="18.0" viewBox="132.0 866.3622 18.0 18.0"><g id="storage_tank-18" inkscape:label="storage_tank-18">
      <path d="m 146,872.3622 c 3,1 3,6 0,7 l -1,0 0,2 -2,0 0,-2 -4,0 0,2 -2,0 0,-2 -1,0 c -3,-1 -3,-6 0,-7 l 2,0 0,-1 -1,0 0,-1 5,0 0,1 -1,0 0,1 c 0,0 4.50977,0 5,0 z" id="path6240" inkscape:connector-curvature="0" sodipodi:nodetypes="ccccccccccccccccccccc" style="fill:none;fill-opacity:1;stroke:#ffffff;stroke-opacity:1;opacity:0.29999999999999999;stroke-width:2;stroke-miterlimit:4;stroke-dasharray:none;stroke-linejoin:round"/>
      <path d="m 146,872.3622 c 3,1 3,6 0,7 l -1,0 0,2 -2,0 0,-2 -4,0 0,2 -2,0 0,-2 -1,0 c -3,-1 -3,-6 0,-7 l 2,0 0,-1 -1,0 0,-1 5,0 0,1 -1,0 0,1 c 0,0 4.50977,0 5,0 z" id="rect6235" inkscape:connector-curvature="0" sodipodi:nodetypes="ccccccccccccccccccccc" style="fill:#747474;fill-opacity:1;stroke:none"/>
      <rect height="18" id="rect6238" style="fill:none;fill-opacity:1;fill-rule:nonzero;stroke:none" transform="translate(0,1028.3622)" width="18" x="132" y="-162"/>
    </g></svg>