<svg width="18.0" height="18.0" viewBox="72.0 848.3622 18.0 18.0"><g id="street_lamp-18" inkscape:label="street_lamp-18">
      <path d="m 81,-179 c -1,0 -2,1.5 -3,4 l -1,0 0,1 1,0 1,4 1,1 0,1 -2,0 0,1 2,0 0,4 2,0 0,-4 2,0 0,-1 -2,0 0,-1 1,-1 1,-4 1,0 0,-1 -1,0 c -1,-2.5 -2,-4 -3,-4 z m -2,5 4,0 -1,4 -2,0 z" id="path16727" inkscape:connector-curvature="0" sodipodi:nodetypes="sccccccccccccccccccccccsccccc" style="fill:none;fill-opacity:1;fill-rule:nonzero;stroke:#ffffff;stroke-opacity:1;opacity:0.29999999999999999;stroke-width:2;stroke-miterlimit:4;stroke-dasharray:none;stroke-linejoin:round" transform="translate(0,1028.3622)"/>
      <path d="m 81,-179 c -1,0 -2,1.5 -3,4 l -1,0 0,1 1,0 1,4 1,1 0,1 -2,0 0,1 2,0 0,4 2,0 0,-4 2,0 0,-1 -2,0 0,-1 1,-1 1,-4 1,0 0,-1 -1,0 c -1,-2.5 -2,-4 -3,-4 z m -2,5 4,0 -1,4 -2,0 z" id="rect16694" inkscape:connector-curvature="0" sodipodi:nodetypes="sccccccccccccccccccccccsccccc" style="fill:#747474;fill-opacity:1;fill-rule:nonzero;stroke:none" transform="translate(0,1028.3622)"/>
      <rect height="18" id="rect16699" style="fill:none;stroke:none;stroke-width:0.20000000000000001;stroke-linejoin:round;stroke-miterlimit:4;stroke-opacity:1;stroke-dasharray:none" transform="translate(0,1028.3622)" width="18" x="72" y="-180"/>
    </g></svg>