<svg width="18.0" height="18.0" viewBox="36.0 830.3622 18.0 18.0"><g id="studio-18" inkscape:label="studio-18">
      <path d="m 48.874894,838.2902 0,1.08596 c 0,2.15285 -1.750979,3.90383 -3.90383,3.90383 -2.152851,0 -3.90383,-1.75098 -3.90383,-3.90383 l 0,-1.08596 -1.067234,0 0,1.08596 c 0,2.56085 1.946383,4.67489 4.437447,4.94213 l 0,1.97651 L 41,846.3622 l 0,1 8,0 0,-1 -3.495149,-0.0674 0,-1.97651 c 2.491064,-0.26707 4.437447,-2.38111 4.437447,-4.94213 l 0,-1.08596 z M 45,842.3622 c 2,0 3,-1.52936 3,-3 l 0,-5 c -1.7e-4,-1.47013 -1,-3 -3,-3 -2,0 -3,1.52987 -3,3 l 0,5 c -1.7e-4,1.47064 1,3 3,3 z" id="path6072" inkscape:connector-curvature="0" style="fill:#747474;stroke:#ffffff;stroke-opacity:1;stroke-width:2;stroke-miterlimit:4;stroke-dasharray:none;stroke-linejoin:round;opacity:0.29999999999999999;fill-opacity:1"/>
      <path d="m 48.874894,838.2902 0,1.08596 c 0,2.15285 -1.750979,3.90383 -3.90383,3.90383 -2.152851,0 -3.90383,-1.75098 -3.90383,-3.90383 l 0,-1.08596 -1.067234,0 0,1.08596 c 0,2.56085 1.946383,4.67489 4.437447,4.94213 l 0,1.97651 L 41,846.3622 l 0,1 8,0 0,-1 -3.495149,-0.0674 0,-1.97651 c 2.491064,-0.26707 4.437447,-2.38111 4.437447,-4.94213 l 0,-1.08596 z M 45,842.3622 c 2,0 3,-1.52936 3,-3 l 0,-5 c -1.7e-4,-1.47013 -1,-3 -3,-3 -2,0 -3,1.52987 -3,3 l 0,5 c -1.7e-4,1.47064 1,3 3,3 z" id="path6039" inkscape:connector-curvature="0" style="fill:#747474;fill-opacity:1"/>
      <rect height="18" id="rect6074" rx="0.49725246" ry="0.032999195" style="opacity:0.29999999999999999;fill:none;fill-opacity:1;fill-rule:nonzero;stroke:none;stroke-width:2;stroke-linecap:round;stroke-linejoin:round;stroke-miterlimit:4;stroke-opacity:1;stroke-dasharray:none" transform="translate(0,1028.3622)" width="18" x="36" y="-198"/>
    </g></svg>