<svg width="12.0" height="12.0" viewBox="54.0 872.36218 12.0 12.0"><g id="taxi-12" inkscape:label="taxi-12">
      <path d="M 56.348799,879.4593" id="path15959" inkscape:connector-curvature="0"/>
      <path d="m 64,877.3622 -0.725501,-1.7094 C 63.122698,875.22944 62.6324,874.36018 62,874.3622 l -1,0 0,-1 -2,0 0,1 -1,0 c -0.6294,-0.002 -1.1196,0.86724 -1.2745,1.2906 L 56,877.3622 c -0.3239,0.0416 -0.9971,0.23765 -1,1 l 0,3 1,0 0,1 c -0.0022,1.11669 2.001699,1.10357 2,0 l 0,-1 2.003001,0 1.996999,0 0,1 c 0.0018,1.10357 1.9996,1.11669 2,0 l 0,-1 1,0 0,-3 c 6e-4,-0.76235 -0.6731,-0.9584 -1,-1 z m -7,3 c -0.471405,0 -1,-0.5286 -1,-1 0,-0.4714 0.528595,-1 1,-1 0.471405,0 1,0.5286 1,1 0,0.4714 -0.528595,1 -1,1 z m 0.3,-3 0.7,-2 4,0 0.7,2 z m 5.7,3 c -0.471405,0 -1,-0.5286 -1,-1 0,-0.4714 0.528595,-1 1,-1 0.471405,0 1,0.5286 1,1 0,0.4714 -0.528595,1 -1,1 z" id="path15974" inkscape:connector-curvature="0" sodipodi:nodetypes="ccccccccccccccccccccccccaaaaacccccaaaaa" style="fill:none;fill-opacity:1;stroke:#ffffff;stroke-opacity:1;opacity:0.29999999999999999;stroke-width:2;stroke-miterlimit:4;stroke-dasharray:none;stroke-linejoin:round"/>
      <path d="m 64,877.3622 -0.725501,-1.7094 C 63.122698,875.22944 62.6324,874.36018 62,874.3622 l -1,0 0,-1 -2,0 0,1 -1,0 c -0.6294,-0.002 -1.1196,0.86724 -1.2745,1.2906 L 56,877.3622 c -0.3239,0.0416 -0.9971,0.23765 -1,1 l 0,3 1,0 0,1 c -0.0022,1.11669 2.001699,1.10357 2,0 l 0,-1 2.003001,0 1.996999,0 0,1 c 0.0018,1.10357 1.9996,1.11669 2,0 l 0,-1 1,0 0,-3 c 6e-4,-0.76235 -0.6731,-0.9584 -1,-1 z m -7,3 c -0.471405,0 -1,-0.5286 -1,-1 0,-0.4714 0.528595,-1 1,-1 0.471405,0 1,0.5286 1,1 0,0.4714 -0.528595,1 -1,1 z m 0.3,-3 0.7,-2 4,0 0.7,2 z m 5.7,3 c -0.471405,0 -1,-0.5286 -1,-1 0,-0.4714 0.528595,-1 1,-1 0.471405,0 1,0.5286 1,1 0,0.4714 -0.528595,1 -1,1 z" id="path15963" inkscape:connector-curvature="0" sodipodi:nodetypes="ccccccccccccccccccccccccaaaaacccccaaaaa" style="fill:#525252;fill-opacity:1"/>
      <path d="M 63.657705,879.4593" id="path15965" inkscape:connector-curvature="0"/>
      <rect height="12" id="rect15967" style="opacity:0.3;fill:none;stroke:none" width="12" x="54" y="872.36218"/>
    </g></svg>