<svg width="18.0" height="18.0" viewBox="132.0 848.3622 18.0 18.0"><g id="tyres-18" inkscape:label="tyres-18">
      <path d="m 141,850.3622 c -3.84823,0 -7,3.1518 -7,7 0,3.8482 3.15177,7 7,7 3.84823,0 7,-3.1518 7,-7 0,-3.8482 -3.15177,-7 -7,-7 z m -0.46875,3.0313 L 140,855.081 c -0.37495,0.1659 -0.7178,0.4008 -0.96875,0.7187 l -1.6875,-0.031 c 0.55548,-1.2824 1.74053,-2.2072 3.1875,-2.375 z m 0.9375,0 c 1.45187,0.1684 2.6658,1.0858 3.21875,2.375 l -1.71875,0.062 C 142.71577,855.5037 142.38286,855.2504 142,855.081 l -0.53125,-1.6875 z M 141,856.3622 c 0.55228,0 1,0.4477 1,1 0,0.5523 -0.44772,1 -1,1 -0.55228,0 -1,-0.4477 -1,-1 0,-0.5523 0.44772,-1 1,-1 z m -3.96875,0.4688 1.5,0.9062 c 0.0406,0.2674 0.13166,0.5175 0.25,0.75 l -0.6875,1.625 C 137.41519,859.3949 137,858.4355 137,857.3622 c 0,-0.1817 0.008,-0.3561 0.0312,-0.5312 z m 7.9375,0 c 0.023,0.1751 0.0312,0.3495 0.0312,0.5312 0,1.0819 -0.40552,2.0623 -1.09375,2.7813 l -0.6875,-1.6563 c 0.11834,-0.2325 0.20935,-0.4826 0.25,-0.75 l 1.5,-0.9062 z m -4.625,2.9375 c 0.21084,0.058 0.42709,0.094 0.65625,0.094 0.22916,0 0.44541,-0.036 0.65625,-0.094 l 1.4375,1 c -0.61079,0.3749 -1.3194,0.5937 -2.09375,0.5937 -0.78448,0 -1.50915,-0.2097 -2.125,-0.5937 l 1.46875,-1 z" id="path4473" inkscape:connector-curvature="0" style="font-size:medium;font-style:normal;font-variant:normal;font-weight:normal;font-stretch:normal;text-indent:0;text-align:start;text-decoration:none;line-height:normal;letter-spacing:normal;word-spacing:normal;text-transform:none;direction:ltr;block-progression:tb;writing-mode:lr-tb;text-anchor:start;baseline-shift:baseline;color:#000000;fill:none;fill-opacity:1;stroke:#ffffff;stroke-width:2;marker:none;visibility:visible;display:inline;overflow:visible;enable-background:accumulate;font-family:Sans;-inkscape-font-specification:Sans;stroke-opacity:1;stroke-miterlimit:4;stroke-dasharray:none;stroke-linejoin:round;opacity:0.3"/>
      <rect height="18" id="rect4244" style="fill:none;fill-opacity:1;fill-rule:nonzero;stroke:none" transform="translate(0,1028.3622)" width="18" x="132" y="-180"/>
      <path d="m 141,850.3622 c -3.84823,0 -7,3.1518 -7,7 0,3.8482 3.15177,7 7,7 3.84823,0 7,-3.1518 7,-7 0,-3.8482 -3.15177,-7 -7,-7 z m -0.46875,3.0313 L 140,855.081 c -0.37495,0.1659 -0.7178,0.4008 -0.96875,0.7187 l -1.6875,-0.031 c 0.55548,-1.2824 1.74053,-2.2072 3.1875,-2.375 z m 0.9375,0 c 1.45187,0.1684 2.6658,1.0858 3.21875,2.375 l -1.71875,0.062 C 142.71577,855.5037 142.38286,855.2504 142,855.081 l -0.53125,-1.6875 z M 141,856.3622 c 0.55228,0 1,0.4477 1,1 0,0.5523 -0.44772,1 -1,1 -0.55228,0 -1,-0.4477 -1,-1 0,-0.5523 0.44772,-1 1,-1 z m -3.96875,0.4688 1.5,0.9062 c 0.0406,0.2674 0.13166,0.5175 0.25,0.75 l -0.6875,1.625 C 137.41519,859.3949 137,858.4355 137,857.3622 c 0,-0.1817 0.008,-0.3561 0.0312,-0.5312 z m 7.9375,0 c 0.023,0.1751 0.0312,0.3495 0.0312,0.5312 0,1.0819 -0.40552,2.0623 -1.09375,2.7813 l -0.6875,-1.6563 c 0.11834,-0.2325 0.20935,-0.4826 0.25,-0.75 l 1.5,-0.9062 z m -4.625,2.9375 c 0.21084,0.058 0.42709,0.094 0.65625,0.094 0.22916,0 0.44541,-0.036 0.65625,-0.094 l 1.4375,1 c -0.61079,0.3749 -1.3194,0.5937 -2.09375,0.5937 -0.78448,0 -1.50915,-0.2097 -2.125,-0.5937 l 1.46875,-1 z" id="path4263" inkscape:connector-curvature="0" style="font-size:medium;font-style:normal;font-variant:normal;font-weight:normal;font-stretch:normal;text-indent:0;text-align:start;text-decoration:none;line-height:normal;letter-spacing:normal;word-spacing:normal;text-transform:none;direction:ltr;block-progression:tb;writing-mode:lr-tb;text-anchor:start;baseline-shift:baseline;color:#000000;fill:#747474;fill-opacity:1;stroke:none;stroke-width:3.27272725;marker:none;visibility:visible;display:inline;overflow:visible;enable-background:accumulate;font-family:Sans;-inkscape-font-specification:Sans"/>
    </g></svg>