<svg width="18.0" height="18.0" viewBox="72.0 794.3622 18.0 18.0"><g id="viewpoint-18" inkscape:label="viewpoint-18">
      <g id="g6387" style="fill:none;fill-opacity:1;stroke:#ffffff;stroke-opacity:1;opacity:0.29999999999999999;stroke-width:12.50000000000000000;stroke-miterlimit:4;stroke-dasharray:none;stroke-linejoin:round" transform="matrix(0.16,0,0,0.16,74.616352,795.34042)">
        <path d="M 59.16,86.315 23.844,61.35 26.987,55.883 66.232,74.068 z M 31.208,100 16.367,66.524 21.823,63.359 43.444,92.928 z M 59.16,13.679 23.844,38.646 26.987,44.118 66.232,25.932 z M 31.208,0 16.367,33.47 21.823,36.636 43.444,7.072 z m 49.494,42.928 -52.986,3.912 0,6.32 52.986,3.912 z M 20.891,50 c 0,5.759 -4.681,10.44 -10.451,10.44 C 4.681,60.44 0,55.759 0,50 0,44.23 4.681,39.555 10.44,39.555 c 5.77,0 10.451,4.675 10.451,10.445 z" id="path6389" style="fill:none;fill-opacity:1;stroke:#ffffff;stroke-opacity:1;stroke-width:12.50000000000000000;stroke-miterlimit:4;stroke-dasharray:none;stroke-linejoin:round"/>
      </g>
      <g id="g5773" style="fill:#747474;fill-opacity:1" transform="matrix(0.16,0,0,0.16,74.616352,795.34042)">
        <path d="M 59.16,86.315 23.844,61.35 26.987,55.883 66.232,74.068 z M 31.208,100 16.367,66.524 21.823,63.359 43.444,92.928 z M 59.16,13.679 23.844,38.646 26.987,44.118 66.232,25.932 z M 31.208,0 16.367,33.47 21.823,36.636 43.444,7.072 z m 49.494,42.928 -52.986,3.912 0,6.32 52.986,3.912 z M 20.891,50 c 0,5.759 -4.681,10.44 -10.451,10.44 C 4.681,60.44 0,55.759 0,50 0,44.23 4.681,39.555 10.44,39.555 c 5.77,0 10.451,4.675 10.451,10.445 z" id="polygon5775" style="fill:#747474;fill-opacity:1"/>
      </g>
      <rect height="18" id="rect5831" style="fill:none;fill-opacity:1;fill-rule:nonzero;stroke:none;stroke-width:2;stroke-linecap:butt;stroke-linejoin:round;stroke-miterlimit:4;stroke-opacity:1;stroke-dasharray:none" transform="translate(0,1028.3622)" width="18" x="72" y="-234"/>
    </g></svg>