<svg width="18.0" height="18.0" viewBox="36.0 1010.3622 18.0 18.0"><g id="waste_basket-18" inkscape:label="waste_basket-18">
      <path d="M 45 -17 C 44.373382 -17 43.845756 -16.48865 43.84375 -15.84375 L 43.34375 -15.84375 C 40.584916 -15.84375 39.999378 -14.5736 40 -14 L 50 -14 C 49.9974 -14.5753 49.412768 -15.84455 46.65625 -15.84375 L 46.125 -15.84375 C 46.124408 -16.15585 45.995783 -16.43535 45.78125 -16.65625 C 45.564563 -16.87765 45.307217 -16.9966 45 -17 z M 40.03125 -13 L 40.875 -2.21875 C 40.875 -1.55195 42.719635 -1 45 -1 C 47.280366 -1 49.125 -1.55195 49.125 -2.21875 L 50 -13 L 40.03125 -13 z M 42.1875 -12.1875 C 42.584647 -12.2065 42.978864 -12.056 43 -11.875 L 43.90625 -2.6875 C 43.921759 -2.5067 43.585113 -2.35135 43.15625 -2.34375 C 42.743255 -2.34375 42.328353 -2.48145 42.3125 -2.65625 L 41.40625 -11.84375 C 41.390257 -12.02445 41.763934 -12.1797 42.1875 -12.1875 z M 47.40625 -12.15625 C 47.503844 -12.170328 47.630696 -12.162425 47.75 -12.15625 C 48.17904 -12.14525 48.521409 -11.9921 48.5 -11.8125 L 47.5625 -2.65625 C 47.54113 -2.48105 47.199587 -2.34375 46.78125 -2.34375 L 46.71875 -2.34375 C 46.289708 -2.35475 45.978587 -2.5068 46 -2.6875 L 46.90625 -11.84375 C 46.922277 -11.979275 47.113468 -12.114016 47.40625 -12.15625 z " id="path6927" style="fill:#ffffff;opacity:0.29999999999999999;stroke:#ffffff;stroke-opacity:1;stroke-width:2;stroke-miterlimit:4;stroke-dasharray:none;stroke-linejoin:round" transform="translate(0,1028.3622)"/>
      <path d="M 45 -17 C 44.373382 -17 43.845756 -16.48865 43.84375 -15.84375 L 43.34375 -15.84375 C 40.584916 -15.84375 39.999378 -14.5736 40 -14 L 50 -14 C 49.9974 -14.5753 49.412768 -15.84455 46.65625 -15.84375 L 46.125 -15.84375 C 46.124408 -16.15585 45.995783 -16.43535 45.78125 -16.65625 C 45.564563 -16.87765 45.307217 -16.9966 45 -17 z M 40.03125 -13 L 40.875 -2.21875 C 40.875 -1.55195 42.719635 -1 45 -1 C 47.280366 -1 49.125 -1.55195 49.125 -2.21875 L 50 -13 L 40.03125 -13 z M 42.1875 -12.1875 C 42.584647 -12.2065 42.978864 -12.056 43 -11.875 L 43.90625 -2.6875 C 43.921759 -2.5067 43.585113 -2.35135 43.15625 -2.34375 C 42.743255 -2.34375 42.328353 -2.48145 42.3125 -2.65625 L 41.40625 -11.84375 C 41.390257 -12.02445 41.763934 -12.1797 42.1875 -12.1875 z M 47.40625 -12.15625 C 47.503844 -12.170328 47.630696 -12.162425 47.75 -12.15625 C 48.17904 -12.14525 48.521409 -11.9921 48.5 -11.8125 L 47.5625 -2.65625 C 47.54113 -2.48105 47.199587 -2.34375 46.78125 -2.34375 L 46.71875 -2.34375 C 46.289708 -2.35475 45.978587 -2.5068 46 -2.6875 L 46.90625 -11.84375 C 46.922277 -11.979275 47.113468 -12.114016 47.40625 -12.15625 z " id="path6894" style="fill:#747474;fill-opacity:1" transform="translate(0,1028.3622)"/>
      <rect height="18" id="rect7437" style="opacity:0.29999999999999999;fill:none;fill-opacity:1;fill-rule:nonzero;stroke:none;stroke-width:2;stroke-linejoin:round;stroke-miterlimit:4;stroke-opacity:1;stroke-dasharray:none" transform="translate(0,1028.3622)" width="18" x="36" y="-18"/>
    </g></svg>