<svg width="18.0" height="18.0" viewBox="102.0 920.36218 18.0 18.0"><g id="water_tower-18" inkscape:label="water_tower-18" transform="translate(30,-54)">
      <path d="m 81,975.3622 -4.03125,2 0.03125,5 -1,9 1,0 0.25,-2 7.5,0 0.25,2 1,0 -1,-9 -0.03125,-5 z m -3,8.125 c 1.767164,1.50313 4.233192,1.49991 6,0 l 0.53125,3.875 -6.984375,0 z" id="path10210" inkscape:connector-curvature="0" sodipodi:nodetypes="ccccccccccccccccc" style="opacity:0.3;fill:none;stroke:#ffffff;stroke-width:2;stroke-linejoin:round;stroke-miterlimit:4;stroke-opacity:1;stroke-dasharray:none"/>
      <path d="m 81,975.3622 -4.03125,2 0.03125,5 -1,9 1,0 0.25,-2 7.5,0 0.25,2 1,0 -1,-9 -0.03125,-5 z m -3,8.125 c 1.767164,1.50313 4.233192,1.49991 6,0 l 0.53125,3.875 -6.984375,0 z" id="rect8633" inkscape:connector-curvature="0" sodipodi:nodetypes="ccccccccccccccccc" style="fill:#747474;fill-opacity:1;fill-rule:nonzero;stroke:none"/>
      <rect height="18" id="rect8644" style="fill:none;stroke:none" width="18" x="72" y="974.36218"/>
    </g></svg>